<svg width="265" height="933" viewBox="0 0 265 933" fill="none" xmlns="http://www.w3.org/2000/svg">
<path d="M210.512 829.528C211.895 832.19 205.874 824.484 209.331 830.055C208.414 829.073 207.465 828.096 206.513 827.15C206.561 826.647 206.599 826.136 206.64 825.63C207.956 826.888 209.251 828.192 210.513 829.527C210.513 829.527 210.512 829.527 210.512 829.528ZM215.752 828.532C213.83 827.81 210.096 823.868 213.126 829.001C213.705 829.13 214.292 829.274 214.873 829.414C215.941 831.206 216.956 833.018 217.924 834.849C218.467 835.366 219.008 835.892 219.541 836.42C219.552 837.554 219.541 838.679 219.519 839.805C219.143 839.065 218.755 838.32 218.365 837.588C216.081 835.198 214.279 832.958 211.413 829.627C211.543 830.02 211.671 830.412 211.796 830.805C210.599 828.922 209.343 827.07 208.034 825.26C209.521 826.51 211.15 827.967 212.473 829.209C211.431 826.328 207.556 822.888 205.528 821.192C202.766 818.871 203.672 819.101 201.57 817.439C201.232 817.178 200.95 817.421 200.317 816.871C197.184 814.033 190.61 809.067 195.018 811.226C200.536 815.539 205.449 819.145 209.941 824.461C209.428 822.435 212.233 824.851 215.752 828.532ZM94.5898 788.049C96.9905 788.179 101.408 789.372 104.378 790.241C104.381 790.242 104.385 790.243 104.388 790.243C105.044 790.439 106.469 791.348 104.263 790.928C100.657 790.213 99.308 788.852 97.156 789.063C96.321 788.734 95.4479 788.401 94.5898 788.049ZM86.8795 785.882C84.8455 784.947 86.0327 784.554 88.6242 785.583C88.6244 785.582 88.6245 785.582 88.6247 785.581C89.7184 786 87.3303 785.94 91.5478 786.529C92.2469 787.225 92.9595 787.872 93.6818 788.542C92.6605 788.281 91.7346 788.04 90.6808 787.743C91.6054 787.188 88.9244 786.809 86.8795 785.882ZM191.883 809.493C191.205 809.891 192.354 810.656 193.927 812.445C192.182 811.109 190.398 809.835 188.57 808.624C189.678 808.894 190.776 809.18 191.883 809.493ZM225.977 848.781C225.979 848.784 225.98 848.787 225.982 848.79C226.432 849.383 226.88 849.982 227.317 850.577C227.299 851.086 227.276 851.589 227.252 852.096C228.647 854.293 229.996 856.556 231.281 858.842C230.46 858.869 228.612 854.56 226.949 852.542C225.415 849.046 224.875 847.251 225.327 846.706C225.549 847.395 225.762 848.083 225.977 848.781ZM194.206 453.006C194.701 452.243 195.18 451.482 195.659 450.708C194.753 451.464 193.864 452.215 192.928 452.935C191.301 455.697 190.53 455.315 187.449 457.974C177.812 465.703 181.134 465.114 170.462 468.996C178.245 464.6 174.761 465.451 178.781 461.861C180.052 461.704 176.349 465.821 179.521 463.992C184.276 459.959 188.682 455.625 193.308 450.63C193.094 450.696 192.88 450.761 192.665 450.826C191.922 451.622 191.178 452.4 190.419 453.173C191.103 452.19 191.756 451.217 192.424 450.199C191.764 451.684 194.287 448.777 194.409 449.631C194.467 450.017 193.545 451.523 193.011 452.431C195.022 450.764 197.037 448.962 198.994 447.116C198.221 448.3 197.433 449.47 196.633 450.621C195.836 451.427 195.036 452.213 194.223 452.994C194.217 452.998 194.212 453.002 194.206 453.006ZM10.2568 69.1075C11.6131 72.3614 13.097 78.4059 13.1625 81.8126C12.0588 77.595 11.0996 73.3677 10.2568 69.1075ZM225.672 846.221C225.751 846.61 225.821 846.984 225.894 847.371C224.891 846.043 223.857 844.719 222.81 843.437C222.954 842.982 223.091 842.52 223.223 842.054C224.061 843.421 224.88 844.818 225.672 846.221ZM141.167 791.87C142.374 791.924 142.49 791.94 143.982 792.113C143.981 792.112 143.979 792.112 143.977 792.111C144.588 792.152 149.431 792.915 148.865 793.141C146.436 792.829 143.871 792.579 141.32 792.425C141.255 792.239 141.25 792.059 141.167 791.87ZM169.407 797.614C169.41 797.616 169.413 797.617 169.416 797.619C170.243 797.956 171.003 798.327 171.85 798.67C168.632 797.922 168.344 797.01 165.434 796.328C162.494 795.672 160.595 795.633 158.357 794.027C159.322 794.08 160.368 794.096 161.363 794.158C165.463 795.685 166.595 795.644 170.051 796.393C169.834 796.8 169.622 797.206 169.407 797.614ZM145.684 477.528C144.996 478.227 143.979 477.909 143.886 477.922C143.887 477.921 143.889 477.92 143.891 477.919C136.879 479.714 144.752 477.557 138.065 478.548C139.045 478.277 139.996 477.986 140.945 477.686C142.471 477.68 144.144 477.639 145.684 477.528ZM0.503895 637.549C0.348405 637.615 0.192243 637.695 0.0368176 637.761C0.198179 633.446 -0.342762 632.304 0.425907 628.752C0.39768 631.686 0.423555 634.622 0.505725 637.549C0.505115 637.549 0.504505 637.549 0.503895 637.549ZM119.647 789.957C124.339 790.043 127.869 790.069 132.591 790.587C132.594 790.587 132.598 790.588 132.602 790.589C132.874 790.62 131.551 790.928 131.906 791.012C132.67 790.984 133.456 790.936 134.24 790.887C134.447 790.873 134.653 790.861 134.857 790.849C134.983 791.107 135.102 791.365 135.225 791.622C134.898 791.611 134.569 791.6 134.24 791.591C131.778 791.527 129.354 791.415 126.963 791.256C127.361 791.423 127.771 791.587 128.173 791.751C125.83 791.751 123.527 791.707 121.247 791.618C122.069 791.255 122.887 790.886 123.695 790.509C122.332 790.34 120.981 790.159 119.647 789.957ZM14.8856 567.729C14.4791 568.388 14.673 566.972 14.1514 568.035C13.6292 569.099 13.2412 571.264 12.9529 570.631C13.3927 569.1 13.8651 567.5 14.3436 565.958C11.778 570.583 11.0104 575.807 9.98371 575.563C11.6879 570.909 12.9165 566.886 14.3255 562.275C15.0268 562.756 14.0732 567.522 15.8401 564.945C15.5188 565.859 15.1917 566.826 14.8874 567.718C14.8868 567.722 14.8862 567.725 14.8856 567.729ZM256.162 909.17C256.467 912.172 257.386 919.066 257.042 922.91C256.972 923.858 255.515 927.022 255.304 927.007C254.614 926.93 254.406 923.164 254.074 927.215C254.036 925.857 253.965 924.545 253.892 923.202C253.44 923.464 252.987 923.722 252.534 923.97C252.671 925.587 252.788 927.222 252.886 928.848C252.733 928.93 252.58 929.012 252.428 929.094C252.294 923.252 251.782 926.711 251.124 923.722C250.963 926.497 250.744 929.306 250.465 932.048C250.5 930.464 250.499 928.59 250.504 927.186C249.718 927.021 249.966 930.348 249.816 930.919C249.114 934.135 249.069 917.782 247.644 916.567C247.725 919.158 247.764 921.889 247.741 924.535C247.571 923.783 247.395 923.022 247.215 922.272C247.701 916.241 247.346 909.475 246.755 902.446C246.626 901.822 246.492 901.199 246.36 900.586C246.04 900.827 245.718 901.057 245.397 901.296C245.203 900.361 245.001 899.417 244.793 898.485C246.417 901.059 245.799 897.218 245.525 892.43C246.453 894.817 246.759 897.935 247.474 897.588C245.389 889.144 243.658 879.041 240.264 871.241C239.415 869.313 238.533 869.637 236.87 865.028C237.031 865.144 237.224 865.099 237.396 865.149C233.83 857.415 231.44 852.902 227.566 844.982C227.51 845.602 227.442 846.209 227.376 846.823C228.43 848.355 229.462 849.92 230.457 851.496C230.488 852.897 229.478 851.31 231.855 856.307C233.739 860.429 232.854 857.869 233.519 858.924C234.409 860.361 234.553 861.901 235.472 863.469C236.173 864.688 236.087 863.097 237.279 866.546C236.173 865.394 235.027 864.25 233.888 863.143C233.685 862.274 233.479 861.412 233.263 860.546C233.768 861.299 234.26 862.045 234.755 862.81C233.279 860.005 231.822 857.419 230.135 854.638C231.41 855.193 229.653 852.323 228.71 850.761C227.245 848.328 228.93 850.185 227.963 848.592C226.984 847.005 225.416 845.591 223.814 842.66C225.088 843.986 224.134 841.709 224.695 841.918C225.265 842.123 227.167 845.168 225.752 841.999C222.005 836.54 224.599 843.366 222.035 839.739C218.923 835.476 219.981 833.139 221.333 834.156C222.397 834.957 224.744 838.644 225.741 839.54C222.086 832.525 220.75 833.363 219.784 832.426C216.098 829.154 220.199 830.109 215.834 826.198C216.283 825.968 216.682 825.754 217.118 825.538C216.408 824.818 215.89 824.384 215.045 823.512C216.619 826.853 214.776 824.593 213.79 823.473C212.234 821.711 214.279 824.746 213.774 824.358C212.44 823.301 210.768 821.27 211.543 822.746C211.204 822.078 210.816 821.367 210.446 820.691C208.39 818.823 202.4 815.95 206.99 819.842C206.055 819.984 204.942 818.37 203.91 817.257C202.879 816.145 202.571 816.527 201.642 815.581C197.882 811.874 201.025 813.467 202.107 813.535C196.365 809.396 201.643 813.806 193.352 808.03C192.264 807.908 195.686 811.041 192.385 809.072C192.33 807.929 190.418 805.668 185.702 802.612C185.122 802.528 184.547 802.453 183.973 802.383C181.703 800.225 183.477 800.042 177.902 798.594C181.458 798.122 179.137 798.278 174.669 795.585C173.75 795.043 176.164 795.581 174.872 794.838C174.285 794.502 172.688 794.202 171.232 793.434C170.529 793.046 167.225 791.136 164.622 790.797C166.173 792.215 161.299 791.675 165.064 793.553C157.801 791.297 152.402 790.852 161.052 791.411C159.245 790.673 157.387 789.979 155.488 789.335C154.118 789.307 152.731 789.301 151.34 789.321C151.261 788.547 151.448 788.252 146.111 787.811C148.426 787.857 150.812 787.979 153.165 788.177C153.269 788.036 153.619 787.929 153.567 787.766C150.65 787.497 142.521 786.821 140.536 786.998C138.581 787.107 142.325 787.356 141.761 787.531C137.124 788.907 137.448 787.812 134.24 788.004C134.175 788.008 134.109 788.013 134.041 788.019C133.154 788.089 133.571 788.167 134.24 788.235C135.093 788.322 136.344 788.417 135.743 788.449C135.208 788.478 134.71 788.49 134.24 788.488C131.179 788.472 129.395 787.777 126.395 787.642C127.606 788.194 128.827 788.741 130.049 789.272C126.314 789.164 122.268 788.928 118.957 788.792C117.658 788.737 118.602 789.195 118.388 789.2C117.401 789.256 112.853 788.945 112.384 788.869C108.829 788.388 108.808 787.863 105.466 787.258C106.782 787.449 108.031 787.615 109.342 787.771C110.059 787.039 110.781 786.303 111.485 785.559C108.187 785.039 104.979 784.42 101.853 783.702C104.089 784.456 106.394 785.16 108.751 785.813C104.846 785.874 101.267 785.861 97.2145 785.578C95.3252 784.697 93.496 783.782 91.7113 782.833C86.5674 781.399 87.0733 783.263 85.1724 781.072C83.6352 780.665 82.0385 780.203 80.5011 779.726C80.7924 779.616 81.0812 779.504 81.3714 779.392C79.518 778.808 77.6944 778.185 75.8977 777.525C77.4281 779.021 78.98 780.514 80.6454 781.931C76.9594 780.654 77.1718 780.005 76.7022 779.644C75.4738 778.673 72.5405 777.933 71.6506 777.058C71.3457 776.774 74.8535 777.979 73.9073 777.003C73.7098 776.825 70.0756 773.124 67.1392 771.904C67.0347 772.211 67.0577 772.671 67.0028 773.036C63.1553 771.103 62.2759 768.503 62.9869 768.416C60.9392 767.532 58.2423 765.703 57.5627 765.837C56.6109 765.179 55.6799 764.513 54.7545 763.829C56.4377 763.563 52.5528 760.855 51.6505 761.462C53.1587 762.723 54.7087 763.952 56.2993 765.141C54.3773 765.252 58.526 769.712 49.4564 760.896C48.0618 758.845 52.6723 763.679 51.495 762.043C49.0684 759.694 46.5196 757.755 44.5323 755.169C42.1403 751.908 45.8711 755.124 39.0487 748.845C52.0135 764.866 35.5971 748.179 29.8077 740.203C29.7807 736.928 25.5778 730.02 20.2658 720.212C20.2948 721.495 22.1144 724.527 22.9382 726.378C23.765 728.24 22.4253 726.46 23.4592 728.805C24.4821 731.162 27.064 735.947 28.2483 738.281C26.6843 736.706 20.4928 727.679 24.9228 733.431C22.5825 728.559 21.8153 726.145 19.033 720.173C17.4835 718.725 16.9748 719.076 14.4733 713.113C16.9452 716.202 14.9372 709.162 16.6242 710.228C18.0404 714.498 16.0566 712.59 16.5726 715.222C16.6179 715.503 18.6129 719.284 19.033 720.173C18.1283 715.856 17.9485 714.368 20.0906 716.263C18.7713 713.566 18.2415 711.81 17.6014 711.772C17.6 711.103 17.6024 710.432 17.6138 709.775C17.2572 708.878 16.9264 708.072 16.5756 707.107C16.2539 708.735 15.7916 705.983 14.7868 704.253C13.7918 702.517 13.9354 705.245 12.2801 700.095C12.6153 701.858 12.9756 703.512 13.3686 705.231C11.998 701.965 10.7522 698.702 9.60047 695.367C9.71942 697.897 10.5762 703.23 9.88972 703.33C9.60265 701.693 7.58103 696.469 7.41748 695.864C6.72362 693.581 7.49107 694.721 7.45345 694.544C6.69456 690.879 5.87492 687.885 6.23084 686.38C5.34903 683.723 5.11042 681.618 4.58324 678.697C4.29834 677.086 3.86991 677.479 3.80716 676.516C3.50896 670.107 4.81537 676.101 2.26077 664.059C2.06342 665.571 1.87268 667.069 1.70576 668.589C1.41424 667.224 1.13665 665.86 0.872579 664.483C0.843521 663.547 0.822008 662.619 0.805515 661.682C1.54501 661.64 2.28636 661.602 3.02582 661.559C2.98065 660.545 2.94164 659.527 2.91209 658.522C3.10428 660.231 3.3209 661.978 3.55763 663.695C3.70233 663.841 3.84625 663.975 3.99125 664.12C3.94253 661.539 3.94579 658.967 3.99637 656.411C3.73633 656.378 3.47454 656.345 3.21451 656.311C3.26954 650.515 3.49073 650.388 2.7113 644.882C2.6938 640.656 1.71586 637.175 1.3593 634.686C1.53826 633.806 1.72416 632.928 1.91375 632.042C1.72859 631.465 1.54687 630.881 1.36608 630.302C1.72907 629.196 2.10114 628.079 2.47843 626.983C1.85658 626.312 1.63951 625.964 1.13116 630.336C0.34775 628.783 1.32478 621.061 1.99113 617.971C2.47367 615.623 2.87112 618.334 2.99061 618.045C3.3796 617.092 3.61631 613.167 3.78411 612.355C4.4576 608.928 4.80484 606.514 5.49591 603.45C5.63051 602.852 6.37362 601.259 6.41557 601.117C6.6931 600.016 7.44901 597.322 7.52205 597.015C11.4172 581.172 5.51566 597.744 9.4107 582.982C9.04585 583.359 8.69303 583.702 8.33234 584.073C8.61259 582.946 8.90494 581.81 9.20135 580.691C9.80484 579.336 9.68723 581.146 10.1919 578.266C10.4401 578.536 10.6885 578.805 10.9333 579.082C11.1201 577.825 11.3051 576.615 11.5207 575.335C13.108 573.744 15.73 566.774 16.776 567.721C17.1138 568.029 15.8757 573.092 17.1918 570.64C17.9956 568.565 17.0186 569.821 17.2881 568.953C19.292 562.716 19.8933 563.371 20.6622 560.828C20.5279 560.318 20.3979 559.785 20.2681 559.263C20.7334 558.351 21.2055 557.442 21.6858 556.534C21.584 556.235 21.4864 555.926 21.3858 555.627C20.9994 556.502 20.5725 557.495 20.2273 558.307C19.8712 556.811 24.145 546.427 23.0164 550.61C22.5476 552.3 21.1746 555.178 22.8557 553.716C23.9294 550.917 25.2029 547.844 26.5158 544.908C26.7447 544.912 26.9708 544.922 27.1996 544.926C29.0081 541.072 26.517 544.142 26.1247 543.944C26.5554 543.061 26.9981 542.177 27.4405 541.307C27.8098 541.033 28.1782 540.784 28.552 540.496C28.292 540.315 27.8833 539.467 29.5272 537.076C30.5952 535.549 29.8436 538.49 31.5089 535.354C30.9496 535.341 29.7481 536.158 31.6625 532.606C32.3124 532.529 33.0028 532.305 33.627 532.328C35.8182 527.84 37.6058 526.526 40.579 521.427C42.4463 518.227 44.5802 513.552 47.722 513.024C49.5408 511.038 48.609 511.353 49.0586 510.684C51.2099 507.534 53.8391 506.325 54.3935 505.863C57.8865 503.019 59.1813 501.493 62.2346 499.617C61.8537 499.445 61.5526 499.236 61.2053 499.05C58.9996 501.559 57.7143 502.584 54.2191 505.759C55.3063 504.602 56.4108 503.475 57.5342 502.381C57.1429 502.326 56.7521 502.271 56.3667 502.214C46.8124 513.15 47.6484 509.46 56.4218 500.696C57.5884 500.412 58.7776 500.129 59.9253 499.906C64.8482 494.879 68.0309 493.465 75.0776 489.859C75.915 489.424 78.8671 487.646 80.2248 487.075C80.2014 487.083 80.1781 487.09 80.1547 487.098C80.7938 486.256 79.5548 486.517 79.2275 486.149C79.95 485.771 80.6664 485.409 81.4134 485.05C83.2553 484.732 82.736 485.185 86.096 483.974C85.5284 483.781 84.9613 483.594 84.3828 483.415C88.1474 482.131 90.7677 481.856 94.33 480.996C93.7473 481.243 93.1777 481.496 92.6063 481.757C100.493 480.663 94.5629 483.759 100.309 481.961C100.703 482.106 101.086 482.256 101.475 482.408C99.0537 482.653 96.667 483.03 94.3283 483.531C94.3299 483.794 94.3282 484.058 94.3404 484.319C96.8146 483.753 99.3463 483.324 101.911 483.05C100.048 483.367 98.2076 483.765 96.4123 484.236C99.3116 483.883 102.336 483.726 105.189 483.776C102.071 482.935 106.073 482.673 105.302 481.76C108.223 482.129 110.769 482.727 113.853 483.3C116.45 483.779 119.424 484.054 123.145 483.821C124.781 483.694 123.902 483.099 128.488 483.783C127.305 482.803 133.152 481.997 132.308 481.027C130.725 481.197 128.991 481.312 127.525 481.409C129.243 481.699 129.595 482.65 126.951 483.004C123.569 483.47 118.513 482.543 118.655 483.597C117.256 483.464 115.947 483.331 114.572 483.156C115.165 482.95 115.741 482.737 116.313 482.52C115.457 482.541 114.667 482.53 113.937 482.493C111.364 482.366 109.617 482.111 108.186 481.564C110.108 481.536 112.051 481.591 114.016 481.73C116.702 481.921 119.345 482.007 121.948 481.995C121.288 481.931 120.617 481.86 119.954 481.785C123.37 481.221 119.951 480.563 126.134 480.436C126.101 480.745 126.074 481.055 126.04 481.365C128.211 480.577 134.558 480.102 132.465 479.303C134.361 479.44 134.766 479.573 135.758 478.948C140.706 479.097 143.965 479.282 142.444 480.702C144.246 480.192 146.079 479.616 147.838 479C146.716 478.97 145.596 478.923 144.48 478.854C147.659 478.203 150.794 477.383 153.834 476.418C154.419 477.208 147.967 478.425 149.988 478.665C150.399 478.721 151.986 477.914 152.446 477.863C157.354 477.347 149.882 478.926 151.449 479.206C158.44 477.225 153.387 480.42 162.445 475.764C162.79 475.895 163.157 476.02 163.486 476.153C166.723 474.734 166.215 474.324 168.864 472.882C170.505 471.973 173.083 471.714 174.542 470.052C174.776 469.734 171.222 470.536 177.45 466.721C182.214 463.61 180.73 465.632 183.42 464.1C186.136 462.572 190.835 457.105 193.261 456.696C191.946 457.639 190.284 458.949 188.797 459.978C188.399 460.651 188.008 461.307 187.602 461.967C190.641 459.129 194.117 456.547 195.665 454.187C200.34 451.128 203.86 445.797 201.907 446.326C200.795 447.773 202.491 446.647 200.545 448.288C200.182 448.301 199.81 448.323 199.447 448.333C202.435 445.227 204.26 443.035 203.6 444.99C204.047 444.512 204.488 444.034 204.93 443.548C204.579 443.091 204.216 442.643 203.862 442.187C204.319 441.556 204.773 440.918 205.221 440.278C205.87 439.691 206.517 439.095 207.167 438.485C207.113 439.951 205.889 441.63 210.45 436.601C210.217 436.398 209.991 436.188 209.757 435.984C213.438 431.726 214.128 432.114 218.053 426.179C215.941 431.35 212.617 432.599 214.382 433.849C213.467 434.872 212.552 435.866 211.591 436.896C211.711 437.252 211.832 437.608 211.957 437.958C216.416 432.049 221.271 420.617 224.783 417.069C224.935 416.471 225.104 415.881 225.245 415.267C228.319 411.439 227.663 408.724 230.764 404.882C231.075 404.47 232.21 406.232 234.88 400.4C234.609 400.451 234.23 400.367 233.918 400.364C234.627 399.168 235.329 397.97 236.019 396.764C235.931 396.451 235.847 396.126 235.756 395.813C234.727 397.951 233.672 400.057 232.589 402.144C233.364 400.351 234.124 398.531 234.859 396.708C233.502 398.907 233.011 399.937 233.158 398.318C234.049 396.29 234.907 394.253 235.728 392.236C235.687 391.974 235.644 391.713 235.603 391.452C234.809 392.265 234.016 393.082 233.209 393.875C235.778 388.836 237.606 384.225 239.899 380.367C240.281 379.715 239.905 382.373 241.163 377.435C241.459 377.457 241.725 377.406 242.004 377.411C243.296 371.259 244.16 369.385 246.596 363.298C244.867 367.18 246.29 363.679 246.31 362.569C246.327 361.81 245.542 364.563 245.432 364.192C245.331 363.821 245.569 360.028 244.578 363.038C243.944 371.019 241.382 372.422 238.703 382.075C239.043 380.544 239.369 379.009 239.673 377.497C239.289 378.125 238.942 378.684 238.525 379.359C240.719 374.267 239.598 376.721 240.101 374.486C240.599 372.245 241.681 368.229 242.428 365.538C242.663 364.691 242.764 365.691 243.374 363.802C243.792 362.523 244.259 358.836 245.132 358.197C245.703 357.77 245.281 363.836 247.467 355.902C248.287 354.516 247.127 358.296 247.149 358.39C247.454 359.224 249.172 354.424 249.359 352.044C249.373 351.852 248.529 353.549 248.874 351.558C249.676 346.83 250.718 344.265 251.984 341.367C251.344 340.88 251.354 336.792 252.523 331.941C252.365 331.651 252.203 331.374 252.043 331.085C252.012 331.867 251.977 332.649 251.94 333.428C251.655 334.232 251.391 335.091 251.079 335.868C251.866 330.925 250.983 330.037 251.036 327.621C251.135 319.358 252.945 324.655 253.155 326.202C252.797 327.227 252.419 328.212 252.043 329.221C252.313 329.149 252.585 329.075 252.854 329.013C254.863 316.852 254.81 327.432 256.246 321.302C255.252 319.519 255.807 314.966 257.236 309.201C257.301 308.553 257.369 307.903 257.429 307.255C257.259 307.129 256.983 307.102 256.882 306.914C257.37 299.895 259.312 298.767 259.557 298.102C260.583 295.155 259.597 292.754 259.635 291.879C259.785 288.173 260.32 287.143 260.207 283.602C260.065 279.76 259.626 282.376 259.31 281.205C259.061 280.267 259.042 277.268 258.757 276.038C258.986 276.527 259.209 277.073 259.437 277.565C259.763 273.607 260.032 270.51 259.947 265.953C258.091 260.939 260.582 256.548 258.419 258.414C258.534 262.616 258.357 265.014 257.85 267.307C257.687 264.516 257.482 261.749 257.233 259.014C257.432 258.199 257.638 257.615 257.825 256.654C257.159 254.694 256.945 249.83 256.57 247.978C254.78 239.3 254.285 242.346 254.472 234.042C255.598 239.803 256.316 239.626 256.944 245.324C257.326 244.027 256.829 241.162 257.709 242.942C256.8 237.487 256.47 239.365 255.64 237.265C254.921 235.449 254.221 231.755 253.7 232.072C253.935 231.639 254.175 231.292 254.408 230.859C253.726 227.351 252.957 223.877 252.043 220.321C252.741 221.738 253.424 223.182 254.09 224.652C253.944 223.459 253.787 222.273 253.62 221.095C250.766 212.709 246.754 197.683 245.291 201.014C243.535 197.088 243.545 196.467 242.965 194.167C242.679 194.023 242.425 193.873 242.119 193.743C241.059 191.205 239.458 189.806 238.331 187.566C237.219 185.381 237.438 184.52 236.291 184.854C235.71 183.376 235.053 181.963 234.386 180.56C233.632 179.988 232.813 179.353 232.027 178.796C231.199 177.559 230.338 176.356 229.447 175.195C228.572 174.972 224.649 170.777 222.375 169.56C220.825 167.681 222.123 166.048 216.871 163.328C216.777 163.803 216.678 164.276 216.576 164.748C215.494 164.018 214.38 163.329 213.228 162.682C213.221 162.513 213.223 162.347 213.214 162.178C213.806 162.504 214.383 162.837 214.959 163.188C214.557 162.694 214.152 162.212 213.733 161.734C211.723 161.205 209.707 160.815 207.706 160.563C210.151 161.655 212.529 162.97 214.74 164.456C211.644 163.231 209.612 162.068 206.78 161.565C204.574 160.249 205.518 160.151 206.728 159.779C205.793 159.563 204.839 159.369 203.886 159.209C204.649 158.73 203.219 157.74 208.648 159.474C208.341 159.163 208.018 158.86 207.71 158.551C206.798 158.303 206.251 157.973 205.217 157.787C202.38 157.282 200.006 158.202 200.171 158.649C200.193 158.859 203.005 158.941 202.821 159.242C202.367 159.953 196.489 158.35 204.929 160.969C202.04 160.75 201.369 160.239 198.348 159.7C198.561 159.983 198.762 160.264 198.956 160.549C197.566 160.245 196.136 160 194.669 159.817C196.923 158.524 185.442 157.835 195.815 156.916C192.807 156.66 189.567 156.684 186.718 156.899C187.313 156.707 187.909 156.525 188.505 156.35C189.784 156.337 191.267 156.356 192.662 156.435C190.998 156.179 189.312 156.002 187.75 155.876C184.029 156.497 182.579 157.269 180.942 158.147C185.421 157.819 183.888 157.479 187.248 157.007C187.164 157.384 187.346 157.707 187.093 158.117C185.363 157.448 179.763 158.912 178.318 159.355C178.303 159.359 178.288 159.363 178.274 159.366C174.269 160.379 177.259 158.948 174.582 159.518C171.913 160.08 168.909 161.134 166.668 160.799C166.782 161.2 167.031 161.591 167.253 161.935C163.254 162.819 164.001 162.167 163.548 162.187C156.28 162.366 153.228 163.733 145.103 164.704C146.12 164.732 147.155 164.738 148.2 164.74C142.252 166.255 146.338 165.609 151.534 165.248C146.704 165.768 143.876 166.786 140.532 167.28C137.321 167.782 131.051 167.675 128.996 167.39C133.891 166.81 139.281 166.813 144.662 166.15C143.999 165.789 143.365 165.488 142.691 165.081C139.469 166.258 137.648 165.767 136.485 165.721C133.188 165.558 133.334 166.302 131.361 165.554C131.448 165.833 131.514 166.069 131.602 166.33C125.126 166.461 117.781 165.73 113.58 166.442C113.224 165.736 112.97 165.061 112.569 164.334C109.692 164.612 107.386 163.825 105.108 163.638C102.856 163.44 103.601 164.114 100.815 163.874C100.298 163.826 99.3027 163.307 98.0294 163.319C96.7531 163.359 91.7975 164.181 91.5947 162.403C89.2632 161.811 87.1337 161.141 84.9827 160.428C87.1151 161.009 89.3006 161.538 91.531 162.003C89.7395 161.139 88.0226 160.243 86.3578 159.311C86.0251 159.582 85.6883 159.858 85.3629 160.125C80.213 158.924 77.0363 157.059 72.2069 154.917C71.4204 154.551 72.9322 156.115 69.5743 154.214C66.2072 152.215 64.3937 149.778 58.7578 146.393C58.4805 146.224 56.2864 145.885 54.8972 143.862C54.5829 143.408 56.4735 144.618 55.6533 143.699C54.7864 142.802 50.8143 139.073 50.8839 138.404C50.8053 138.571 50.9264 138.934 50.9252 139.176C50.192 138.609 49.4591 138.023 48.729 137.416C48.8841 137.135 49.0353 136.849 49.1908 136.57C44.9924 133.297 42.1209 132.004 37.723 125.305C38.6584 127.396 39.6687 129.466 40.7581 131.505C41.3971 131.789 42.0395 132.063 42.6739 132.322C44.9681 135.212 47.4619 137.996 50.0942 140.592C50.7843 140.74 51.4653 140.874 52.1542 141.004C52.8511 141.683 53.5552 142.345 54.2796 143.005C53.9258 143.049 53.5704 143.088 53.2073 143.121C54.7534 144.34 56.2973 145.471 57.8917 146.564C53.7567 145.531 49.5093 139.439 49.0672 140.727C48.5624 139.982 48.0656 139.227 47.5807 138.464C46.8748 138.63 45.6963 137.249 43.661 134.846C43.9152 135.587 44.236 136.38 44.4705 137.079C42.6421 134.561 39.1048 130.377 37.3767 127.692C36.6096 126.52 37.7971 127.382 37.5946 127.015C36.5533 125.16 33.6612 122.211 33.2668 121.44C30.8758 116.907 30.6116 113.361 27.3337 108.842C29.6288 114.066 28.3575 111.232 28.7957 113.293C28.9261 113.93 32.1476 120.641 27.9034 112.372C27.1666 111.47 21.6416 95.5956 24.4957 100.397C23.2669 97.9893 22.2684 96.1146 21.2042 93.8526C21.2594 87.4672 20.0844 90.0464 19.6001 92.0602C19.2841 91.1144 18.9848 90.2131 18.6804 89.2304C20.3578 90.9783 17.2809 80.3657 15.9558 76.8013C15.4808 75.6153 15.9433 79.1393 15.1045 76.3316C14.8649 74.957 14.6218 73.3923 14.4046 71.9349C14.1491 74.1745 13.0125 70.1251 12.3194 70.321C12.4196 67.5448 13.4131 65.2904 14.409 66.5956C13.7073 64.4859 13.0338 62.3567 12.3858 60.22C12.378 61.2634 12.3793 62.3145 12.3841 63.357C11.5705 56.1656 9.4779 47.0389 10.8507 45.3871C10.7377 44.4377 10.6287 43.4712 10.524 42.5205C10.2385 42.2512 9.95373 41.9913 9.66885 41.721C9.47844 37.4067 9.36775 33.0497 9.32414 28.7437C9.7305 32.571 10.158 33.4397 10.1933 37.5076C10.3573 35.9281 10.5307 34.3167 10.7171 32.7803C9.51453 26.8109 8.90958 26.0041 8.77043 16.8245C8.75662 16.438 9.20939 9.46171 9.27784 9.24593C9.5485 8.16513 10.0228 9.78315 10.1612 9.30134C10.5389 8.01337 11.4475 -0.207894 11.6175 0.00399165C13.5046 1.93943 14.3531 29.1068 15.278 36.3392C18.9246 73.517 27.4674 112.247 54.0102 136.902C80.4974 161.804 120.789 164.597 157.177 158.703C157.942 158.58 157.563 158.346 157.888 158.282C159.902 157.893 162.008 157.987 162.781 157.869C164.351 157.628 163.412 157.373 164.541 157.167C168.717 156.404 172.933 155.569 177.242 154.628C185.677 152.795 193.956 152.366 202.536 153.869C203.427 154.034 202.462 154.178 204.02 154.438C204.821 154.565 207.424 154.67 209.171 155.235C215.22 157.173 220.119 159.916 225.393 163.861C228.342 166.034 232.307 169.806 234.904 172.818C236.075 174.147 237.441 175.457 238.525 176.877C239.975 178.8 239.285 178.696 239.48 179.01C240.314 180.412 240.871 180.306 241.727 181.623C243.282 184.095 243.113 184.448 244.957 187.645C246.24 189.827 249.13 195.072 250.493 198.19C253.084 205.226 256.113 214.409 257.873 221.285C258.945 225.462 258.484 225.802 258.842 227.472C260.031 233.235 261.395 237.829 262.117 243.262C263.079 250.669 263.187 257.233 263.467 264.426C263.51 265.597 263.946 265.311 263.998 266.465C264.194 270.739 264.317 276.043 264.198 279.849C264.062 284.082 263.367 285.593 263.324 289.666C263.307 290.863 263.86 291.241 263.82 293.259C263.753 296.477 262.982 300.017 262.733 302.219C262.385 305.26 263.213 302.659 262.736 306.772C262.715 306.941 262.242 307.516 262.168 308.402C261.942 310.986 262.305 310.767 261.81 314.546C261.769 314.917 260.707 319.853 260.625 320.34C260.216 323.247 259.116 329.072 258.88 330.803C258.048 336.99 259.564 332.29 257.231 337.227C257.1 339.574 256.952 341.907 256.728 344.394C256.802 342.721 254.895 349.154 254.795 349.611C254.083 353.448 255.167 351.328 253.842 356.098C254.32 349.475 252.084 362.228 251.226 364.973C247.386 378.345 242.718 390.079 236.793 402.781C234.807 407.043 232.217 412.7 229.742 417.091C229.173 418.105 229.353 417.198 228.845 418.085C228.338 418.968 229.178 418.146 228.586 419.147C224.902 425.314 221.275 429.825 218.058 435.638C217.78 435.835 217.716 435.777 217.306 436.137C214.731 441.004 207.251 448.552 204.405 451.284C199.976 455.671 199.132 457.056 195.758 460.008C191.225 464.024 183.432 468.534 187.541 467.352C184.295 469.84 180.943 472.114 177.276 474.131C176.867 474.355 176.952 473.867 176.787 473.955C175.746 474.504 175.58 474.985 174.892 475.39C173.023 476.473 175.911 474.419 173.27 475.997C171.866 476.803 171.213 477.555 167.098 479.471C151.031 486.95 131.846 489.998 113.373 487.928C104.496 486.977 95.7887 487.965 87.5992 490.673C86.0099 491.214 87.1694 491.184 85.1921 491.888C78.3079 494.074 66.6153 500.885 61.9325 505.348C57.1344 509.722 58.562 509.228 55.9063 512.192C55.3983 512.78 55.6213 512.11 55.13 512.615C51.8092 516.019 47.771 520.181 45.3885 523.271C43.7978 525.333 44.3139 525.454 43.2909 526.955C41.7691 529.203 39.9045 531.184 39.1146 532.404C35.429 538.144 33.5741 542.338 30.5498 547.966C30.7549 547.788 30.9155 547.684 31.1024 547.541C27.7576 554.229 24.7969 561.218 22.2633 568.227C22.4737 567.926 22.6813 567.637 22.8943 567.339C19.8949 575.627 19.3313 574.428 21.6417 574.349C21.5164 574.982 21.3896 575.67 21.277 576.261C20.2799 575.68 17.8314 580.458 15.8365 587.042C15.6798 587.535 15.953 591.042 14.7728 590.381C14.8787 591.305 14.974 591.862 15.0808 592.645C14.3708 593.956 13.6723 595.299 12.9865 596.636C12.8821 597.414 12.7774 598.203 12.6809 598.983C12.9092 599.147 13.1874 599.112 13.3848 599.407C12.6785 602.98 11.1665 610.213 10.836 613.073C9.93866 620.146 10.0286 627.374 9.02029 632.851C8.97721 635.543 9.58041 632.897 9.37557 636.885C9.10736 637.328 8.85172 637.745 8.57792 638.211C9.64945 641.505 8.93365 642.152 8.7425 646.642C8.62969 649.681 8.9757 651.656 9.06693 654.531C9.09159 655.26 8.75312 655.175 8.79229 655.673C8.90693 657.339 9.74 662.065 9.87973 663.238C11.0445 673.844 12.5883 682.861 15.0719 692.699C15.3434 693.752 15.293 692.306 15.5742 693.394C16.0344 695.14 15.2629 694.253 15.5239 695.268C16.282 698.097 16.7692 697.941 18.0701 701.813C22.3311 714.462 28.848 728.549 37.2913 739.544C37.5544 739.888 37.7865 739.677 38.0759 740.046C39.956 742.448 41.644 745.091 43.5219 747.133C46.6448 750.511 49.4567 752.625 52.8698 755.581C59.5878 761.313 66.0329 765.894 74.2965 770.057C80.8594 773.308 87.1604 775.704 95.0004 777.887C107.685 781.362 120.554 782.713 134.24 782.589C159.612 782.081 186.021 790.523 205.297 807.51C206.065 808.178 205.569 808.121 205.812 808.313C208.116 810.143 208.549 810.071 208.793 811.347C211.617 813.784 212.894 814.197 215.953 817.533C217.555 819.336 215.698 818.583 218.71 821.343C221.331 823.911 219.385 820.327 225.513 829.371C225.669 829.615 226.054 831.087 227.431 832.869C228.798 834.683 227.723 832.236 230.762 836.8C237.872 847.545 244.095 862.651 248.306 876.792C248.627 877.666 251.181 886.22 251.647 887.924C252.64 891.197 252.913 890.415 253.859 894.759C254.565 898.124 254.571 900.993 255.208 904.967C255.279 905.43 255.876 906.148 256.162 909.17ZM203.265 442.13C203.422 441.206 203.045 439.067 206.423 435.636C206.746 435.304 206.155 437.991 207.954 435.999C206.443 438.15 204.868 440.144 203.266 442.131C203.266 442.131 203.265 442.13 203.265 442.13ZM246.408 931.134C246.477 927.554 246.445 923.95 246.312 920.36C246.673 922.825 246.985 925.287 247.252 927.765C246.981 928.898 246.699 930.014 246.408 931.134ZM2.64633 614.486C2.64588 614.49 2.64544 614.493 2.64499 614.497C2.9117 610.607 3.27418 606.721 3.73052 602.855C3.82145 603.286 3.91405 603.717 4.00731 604.147C3.74499 607.212 3.5413 610.284 3.39911 613.347C3.1473 613.725 2.89631 614.106 2.64633 614.486ZM2.54426 645.099C2.37247 647.57 2.03969 646.971 1.74399 648.34C1.7446 648.34 1.74521 648.34 1.74582 648.34C1.66842 648.701 1.63994 650.379 1.65136 651.026C1.84955 650.78 2.04331 650.466 2.24032 650.202C2.89518 655.911 1.92852 667.33 0.337884 652.725C0.607577 652.934 0.875818 653.132 1.14609 653.339C0.730242 646.037 1.45693 637.962 2.54426 645.099ZM232.312 393.061C233.903 387.17 234.476 385.334 237.596 378.596C237.468 379.652 237.327 380.728 237.184 381.792C236.519 382.852 235.854 383.895 235.177 384.938C235.176 384.941 235.175 384.944 235.173 384.947C235.325 385.269 235.477 385.592 235.631 385.906C234.559 388.316 233.45 390.71 232.312 393.061ZM150.292 790.979C151.723 792.928 151.355 791.788 146.586 791.626C144.939 791.59 146.5 792.049 145.48 791.997C139.934 791.777 139.563 790.727 140.823 790.173C144.025 790.309 147.158 790.576 150.281 790.977C150.285 790.978 150.288 790.978 150.292 790.979ZM244.118 890.159C244.118 890.162 244.119 890.166 244.12 890.169C243.746 890.401 243.139 888.215 243.315 890.795C242.897 888.897 242.451 887.007 241.969 885.112C242.148 885.658 242.326 886.217 242.5 886.765C242.518 886.239 242.536 885.711 242.549 885.184C241.914 884.632 242.031 883.941 241.648 881.925C241.304 882.605 240.956 883.278 240.605 883.95C240.152 881.635 239.647 879.309 239.098 877.008C239.212 876.943 239.327 876.876 239.441 876.811C239.021 876.006 238.597 875.218 238.164 874.42C238.235 874.143 238.307 873.873 238.377 873.594C237.929 872.608 237.471 871.626 237.004 870.653C237.242 870.221 238.2 872.399 236.687 868.474C237.491 869.556 238.278 870.643 239.062 871.76C241.082 877.796 242.761 883.942 244.118 890.159ZM105.68 788.012C112.743 789.105 110.766 789.002 108.96 789.607C107.852 789.087 106.751 788.554 105.68 788.012ZM69.6658 491.433C71.0992 489.883 72.7296 488.311 74.4156 486.833C78.1737 484.549 82.592 484.017 79.7655 485.6C76.435 487.539 72.5318 488.951 69.6658 491.433ZM161.805 473.789C157.063 475.446 161.188 473.042 162.033 472.221C163.543 472.258 165.284 471.428 168.062 470.081C165.519 471.46 162.596 473.512 161.806 473.791C161.806 473.79 161.805 473.79 161.805 473.789ZM18.8363 555.702C18.0527 557.622 17.4242 559.634 16.5923 561.257C16.2655 560.552 18.1046 557.272 16.3642 559.452C16.8388 558.205 17.3313 556.95 17.825 555.721C17.815 556.628 18.4821 555.678 18.8325 555.706C18.8338 555.705 18.835 555.704 18.8363 555.702ZM43.5674 758.518C41.04 755.193 40.3207 754.857 37.1813 752.115C37.1836 751.341 41.1378 754.355 43.4875 756.315C43.5033 757.044 43.5283 757.777 43.5674 758.518ZM30.1633 119.806C31.2102 120.335 35.1615 126.382 37.2344 129.337C36.8958 129.055 36.5567 128.771 36.2195 128.484C34.0627 125.7 32.036 122.784 30.1633 119.806ZM169.381 469.438C168.917 469.665 168.477 469.879 168.062 470.081C168.514 469.839 168.958 469.618 169.381 469.438ZM259.018 285.896C259.595 287.594 259.996 282.615 259.515 288.662C259.515 288.662 259.516 288.663 259.517 288.663C259.169 292.67 259.07 293.557 258.764 297.295C258.044 295.884 258.251 288.319 257.373 298.723C257.361 298.861 257.872 298.623 257.671 300.29C257.608 300.798 257.08 302.389 256.726 304.853C256.611 305.651 255.889 311.651 256.688 303.455C256.097 303.646 255.561 303.154 255.008 303.123C255.133 299.955 256.443 297.537 256.628 294.136C256.89 289.08 255.822 286.509 257.342 285.595C257.594 289.809 257.131 297.137 256.154 298.024C255.825 302.147 256.438 303.347 257.078 300.093C257.586 285.817 258.55 296.217 258.461 283.774C258.259 283.619 258.05 283.096 257.854 283.171C258.666 279.343 258.822 285.322 259.018 285.896ZM254.994 315.427C254.882 312.926 254.734 310.444 254.559 307.978C255.262 308.054 255.773 309.455 255.697 313.361C255.465 314.047 255.229 314.743 254.994 315.427ZM174.876 161.695C174.604 162.149 173.736 162.697 173.126 163.199C172.332 163.155 154.729 165.916 163.718 164.032C164.972 163.792 172.853 162.965 174.876 161.695ZM66.9142 774.759C65.1561 773.5 63.4627 772.208 61.8257 770.882C64.6437 772.445 67.5563 773.897 70.5562 775.236C69.3383 775.095 68.1297 774.939 66.9142 774.759ZM102.327 481.406C101.424 481.459 104.385 480.7 100.835 481.061C103.481 480.484 105.86 480.121 108.494 479.857C109.271 480.127 110.05 480.408 110.816 480.703C111.432 480.576 112.066 480.46 112.694 480.35C112.295 480.685 111.943 481.017 111.536 481.363C107.216 480.34 106.208 481.255 102.327 481.406ZM17.567 566.607C16.5518 567.061 18.2188 561.091 16.0273 566.765C15.9239 565.503 16.2848 563.645 17.5286 560.32C17.9202 559.867 18.32 559.396 18.7204 558.934C18.2543 558.662 18.4086 557.721 18.8363 555.702C18.8375 555.701 18.8388 555.699 18.84 555.698C20.9413 550.641 21.0169 551.045 22.3459 550.218C19.5462 555.242 20.2416 555.758 19.2067 559.58C18.5153 562.188 17.1801 565.388 17.567 566.607ZM193.476 159.247C189.49 159.961 192.914 160.336 186.151 160.167C186.573 159.949 186.998 159.737 187.422 159.528C189.336 159.333 191.414 159.225 193.476 159.247ZM9.06471 584.953C10.3703 584.797 12.2912 581.372 10.5484 580.198C9.14973 583.702 10.7312 582.229 9.06471 584.953ZM160.947 476.234C154.221 478.758 155.057 476.856 157.531 475.257C158.036 475.34 158.543 475.42 159.043 475.496C160.155 474.944 161.254 474.37 162.339 473.778C161.891 474.599 161.427 475.419 160.947 476.234ZM14.2063 709.603C11.4364 704.779 15.8882 715.303 13.9931 711.927C12.4394 709.232 11.9433 705.087 12.9759 706.352C13.3445 707.347 13.7589 708.451 14.2025 709.593C14.2038 709.596 14.205 709.599 14.2063 709.603ZM5.65572 679.106C4.8948 680.156 4.9039 678.841 5.89253 683.071C6.11005 684.279 8.03695 693.964 7.8367 689.747C7.01622 686.318 6.28225 682.716 5.65572 679.106ZM219.718 420.665C220.159 420.793 216.82 427.698 216.061 428.342C216.061 428.343 216.062 428.343 216.062 428.343C214.105 430.165 218.436 423.515 215.831 425.919C220.659 419.889 220.101 417.052 221.898 418.701C219.692 422.577 220.358 420.508 219.718 420.665ZM8.96227 28.8246C8.96205 28.821 8.96183 28.8175 8.96162 28.814C8.96924 29.3359 8.65426 33.5079 8.41445 33.0256C8.24803 28.0277 8.69983 28.8586 7.79443 24.2355C7.99029 23.9696 8.18194 23.7409 8.3788 23.4565C8.59738 25.2926 8.90201 26.3012 8.96227 28.8246ZM155.818 164.315C157.608 163.95 161.037 163.855 163.175 163.451C156.625 166.336 148.696 165.713 155.818 164.315ZM215.763 828.543C215.76 828.539 215.756 828.535 215.752 828.532C215.754 828.532 215.756 828.533 215.758 828.534C215.76 828.537 215.762 828.54 215.763 828.543ZM253.465 232.541C253.531 232.288 253.601 232.14 253.675 232.077C253.683 232.076 253.691 232.074 253.699 232.073C253.62 232.217 253.542 232.37 253.465 232.541ZM227.221 407.038C229.179 404.509 225.165 414.239 223.212 417.025C223.105 416.69 222.919 416.54 222.932 415.916C224.896 413.915 226.942 407.416 227.221 407.038ZM36.5832 524.758C41.3829 517.912 37.0063 528.08 35.3563 527.444C35.3318 527.408 36.4617 524.931 36.5832 524.758ZM188.286 458.175C187.094 460.022 190.514 457.548 185.15 461.645C184.732 461.744 184.314 461.839 183.897 461.932C185.386 460.721 186.849 459.467 188.286 458.175ZM77.7079 490.83C86.5538 485.954 96.3652 483.656 89.2563 483.34C88.5018 483.607 87.7419 483.888 86.999 484.181C87.1621 485.103 84.1948 485.424 80.2448 487.069C79.8263 487.632 77.7248 488.681 77.4664 489.16C76.9695 490.063 79.5411 489.296 77.7079 490.83ZM173.265 794.744C173.053 794.831 172.844 794.92 172.633 795.006C171.041 794.593 169.421 794.213 167.807 793.879C168.147 793.672 168.497 793.47 168.846 793.268C170.337 793.728 171.803 794.217 173.256 794.74C173.259 794.741 173.262 794.743 173.265 794.744ZM255.436 325.723C253.873 324.514 253.72 327.816 253.315 334.567C254.062 331.643 254.773 328.675 255.436 325.723ZM5.10114 631.864C4.60025 632.054 4.10126 632.241 3.60036 632.443C3.94759 636.025 4.54706 635.374 5.26391 633.712C5.20749 633.092 5.1525 632.485 5.10114 631.864ZM8.69906 682.487C8.51805 681.034 8.27362 681.841 8.25179 681.689C7.77325 678.008 7.84893 677.46 6.87937 673.002C6.69701 672.467 6.51284 671.942 6.33178 671.404C5.60592 673.621 6.35336 675.076 6.53907 679.597C6.74264 678.738 6.95315 677.885 7.16988 677.032C7.50486 679.497 7.88694 681.939 8.31892 684.376C8.48519 684.641 8.65116 684.906 8.81858 685.169C8.77173 684.282 8.74291 683.363 8.69906 682.487ZM190.076 803.637C192.101 804.953 194.098 806.359 196.019 807.817C196.24 807.665 196.459 807.51 196.681 807.359C194.528 806.037 192.311 804.786 190.076 803.637ZM258.757 276.038C258.667 275.846 258.577 275.659 258.485 275.493C258.597 275.509 258.685 275.718 258.757 276.038ZM9.99613 22.3707C10.0367 19.5946 9.76781 15.6991 9.71375 12.6613C9.07815 12.9574 9.52589 20.5493 9.29311 23.2643C9.42871 23.6876 9.97771 23.5216 9.99613 22.3707ZM151.598 479.404C151.024 479.898 150.441 480.387 149.857 480.869C148.22 481.267 146.562 481.621 144.884 481.936C144.887 482.2 144.892 482.466 144.895 482.73C152.192 480.742 150.627 481.78 154.446 481.443C153.477 480.778 152.535 480.096 151.598 479.404ZM238.614 862.42C236.421 857.494 235.289 855.939 235.801 858.999C236.712 860.656 237.601 862.349 238.454 864.039C238.509 863.497 238.561 862.954 238.614 862.42ZM236.815 182.58C234.048 179.181 234.757 178.375 231.424 175.387C232.83 177.258 234.258 179.373 235.395 181.277C235.867 181.698 236.348 182.14 236.815 182.58ZM237.905 395.89C238.997 394.287 238.81 390.394 241.935 385.86C242.042 384.528 241.987 383.649 242.023 382.489C242.626 382.033 243.265 381.486 243.85 381.056C243.852 381.053 243.853 381.049 243.854 381.046C245.365 376.451 243.822 379.231 243.457 378.982C243.311 378.877 244.775 375.596 244.039 376.525C242.808 378.125 240.638 385.044 239.853 384.765C241.032 382.486 242.499 377.754 241.492 378.947C240.41 380.223 239.696 384.983 238.128 387.544C240.913 384.07 237.27 392.097 235.936 392.591C234.603 397.579 236.806 393.433 238.754 388.511C238.247 391.79 239.655 387.233 240.526 386.727C239.722 390.019 234.825 400.372 237.905 395.89ZM45.6209 518.023C47.6949 515.306 51.7323 511.45 52.9048 509.357C53.5953 508.091 49.6162 511.838 51.791 508.702C49.4755 511.208 49.1449 511.984 49.9165 511.887C49.4392 512.506 48.9589 513.138 48.4896 513.769C48.1754 513.977 47.8562 514.194 47.5425 514.406C47.4348 514.859 47.3268 515.313 47.2303 515.76C46.6574 516.378 46.1197 516.967 45.5716 517.578C45.5948 517.719 45.5652 517.905 45.6209 518.023ZM117.599 165.412C118.567 165.451 119.533 165.482 120.518 165.503C120.413 165.374 120.288 165.239 120.168 165.106C120.083 165.001 119.997 164.896 119.912 164.791C120.406 165.189 125.316 165.882 127.126 165.453C128.094 165.242 125.873 164.596 129.985 164.391C127.005 164.502 124.261 164.603 121.251 164.589C121.522 164.389 121.782 164.186 122.052 163.985C122.05 163.985 122.048 163.985 122.046 163.984C121.063 163.918 120.078 163.841 119.115 163.757C118.61 164.311 118.11 164.862 117.599 165.412ZM6.23693 629.06C6.05503 625.716 5.95713 624.578 5.17429 626.1C5.17372 626.104 5.17315 626.107 5.17257 626.111C5.36554 627.375 5.56879 628.636 5.78265 629.892C5.93323 629.617 6.08471 629.344 6.23693 629.06ZM259.328 246.899C256.058 240.024 259.317 255.999 259.812 252.875C259.85 252.721 259.145 247.593 259.328 246.899ZM162.46 476.438C160.642 477.224 158.793 477.955 156.914 478.633C157.449 478.771 157.996 478.898 158.536 479.026C159.873 478.192 161.182 477.327 162.46 476.438ZM229.243 840.835C228.782 838.677 226.037 833.933 223.886 832.215C224.615 833.404 225.319 834.596 226.008 835.803C224.5 833.662 222.937 831.59 221.295 829.525C220.439 829.983 222.746 832.066 225.036 836.003C225.411 836.615 226.8 841.02 228.331 841.903C228.66 842.073 226.279 837.919 228.464 840.487C227.746 839.216 227.072 838.154 226.342 836.977C226.478 836.77 226.615 836.563 226.745 836.347C227.612 837.837 228.436 839.322 229.243 840.835ZM59.5322 503.321C63.1761 500.273 63.413 499.726 63.8189 498.548C62.0661 499.973 60.4348 501.405 58.7952 502.939C59.0447 503.062 59.2829 503.195 59.5322 503.321ZM200.379 807.209C198.272 805.448 198.87 806.604 197.929 806.027C194.362 803.897 192.212 802.012 188.556 800.14C188.844 800.186 189.11 800.228 189.388 800.274C189.385 800.272 189.382 800.27 189.379 800.268C172.332 790.829 181.142 796.264 191.121 802.009C191.242 802.325 191.352 802.635 191.47 802.95C196.014 805.406 199.958 808.115 200.379 807.209ZM258.993 310.752C259.142 310.549 259.742 312.489 259.752 308.977C258.871 306.108 258.975 310.668 258.383 311.741C258.381 310.791 258.38 309.822 258.368 308.885C257.411 314.436 257.545 315.292 258.665 313.355C258.743 313.215 258.844 310.955 258.993 310.752ZM261.577 273.763C259.848 273.001 260.622 280.095 261.145 279.858C261.179 278.87 260.891 278.101 261.025 277.059C261.157 276.007 261.568 275.735 261.577 273.763ZM191.669 460.034C191.835 459.909 193.933 459.049 193.393 458.757C190.536 459.519 186.991 463.451 187.991 463.251C189.352 462.146 190.129 461.25 191.67 460.036C191.669 460.035 191.669 460.035 191.669 460.034ZM243.2 870.375C243.233 870.261 241.733 865.185 241.213 864.648C240.726 864.232 240.318 864.092 239.87 863.816C241.225 866.401 242.907 872.025 243.197 870.365C243.198 870.368 243.199 870.372 243.2 870.375Z" fill="#1A3A52"/>
</svg>
