<svg width="330" height="794" viewBox="0 0 330 794" fill="none" xmlns="http://www.w3.org/2000/svg">
<path d="M255.593 700.557C257.782 702.751 249.488 696.971 254.608 701.4C253.381 700.691 252.186 700.033 250.951 699.375C250.839 698.873 250.716 698.367 250.597 697.863C252.293 698.729 253.917 699.599 255.594 700.555C255.594 700.556 255.594 700.556 255.593 700.557ZM260.376 698.107C258.298 697.965 253.384 695.172 257.974 699.308C258.578 699.269 259.192 699.241 259.799 699.211C261.374 700.626 262.957 702.113 264.457 703.605C265.143 703.95 265.824 704.3 266.5 704.658C266.871 705.76 267.213 706.857 267.539 707.955C266.947 707.345 266.338 706.729 265.728 706.126C262.798 704.478 260.322 702.804 256.505 700.4C256.755 700.744 257.004 701.089 257.249 701.434C255.484 699.943 253.686 698.507 251.845 697.118C253.69 697.917 255.713 698.857 257.404 699.695C255.462 697.185 250.626 694.95 248.134 693.862C244.727 692.365 245.657 692.328 243.103 691.278C242.695 691.114 242.489 691.426 241.705 691.058C237.739 689.125 229.85 685.847 234.834 686.895C241.516 689.758 247.422 691.914 253.458 695.811C252.339 693.999 255.782 695.531 260.376 698.107ZM128.103 673.399C130.389 673.224 134.969 673.967 138.156 674.604C138.16 674.604 138.164 674.605 138.167 674.605C138.865 674.747 140.414 675.541 138.101 675.298C134.34 674.886 132.696 673.655 130.694 674.108C129.852 673.874 128.972 673.644 128.103 673.399ZM120.085 672.248C117.827 671.605 118.989 671.04 121.85 671.717C121.85 671.717 121.85 671.716 121.85 671.715C123.035 671.988 120.623 672.238 124.98 672.278C125.743 672.875 126.508 673.425 127.28 673.999C126.265 673.867 125.344 673.748 124.292 673.597C125.168 672.93 122.361 672.886 120.085 672.248ZM231.213 685.94C230.633 686.483 232.015 686.981 234.084 688.35C231.961 687.462 229.819 686.627 227.681 685.851C228.865 685.869 230.035 685.897 231.213 685.94ZM276.483 714.875C276.485 714.877 276.487 714.879 276.49 714.882C277.101 715.338 277.709 715.801 278.302 716.262C278.43 716.762 278.551 717.256 278.67 717.755C280.659 719.535 282.581 721.379 284.452 723.305C283.653 723.519 280.711 719.807 278.503 718.269C276.042 715.295 274.949 713.673 275.234 713.025C275.651 713.632 276.069 714.252 276.483 714.875ZM230.13 393.354C230.853 392.747 231.556 392.141 232.261 391.525C231.144 392.006 230.04 392.491 228.893 392.938C226.418 395.193 225.789 394.6 222.032 396.335C210.3 401.356 213.786 401.568 202.18 402.935C211.08 400.37 207.305 400.457 212.307 397.912C213.614 398.068 208.783 401.184 212.454 400.17C218.443 397.343 223.735 394.457 229.982 390.803C229.75 390.809 229.519 390.813 229.288 390.818C228.31 391.389 227.331 391.947 226.335 392.498C227.323 391.722 228.272 390.95 229.245 390.144C228.136 391.405 231.516 389.273 231.369 390.137C231.308 390.526 229.94 391.732 229.131 392.471C231.631 391.396 234.145 390.214 236.588 388.996C235.487 389.914 234.369 390.821 233.239 391.711C232.216 392.269 231.191 392.81 230.151 393.347C230.144 393.349 230.137 393.352 230.13 393.354ZM17.0836 70.827C19.0299 73.9511 21.8056 79.7943 22.7241 83.2001C20.606 79.1904 18.7324 75.0574 17.0836 70.827ZM275.426 712.459C275.614 712.813 275.794 713.159 275.982 713.518C274.615 712.496 273.236 711.511 271.827 710.551C271.827 710.068 271.818 709.579 271.802 709.088C273.039 710.19 274.251 711.32 275.426 712.459ZM175.802 674.956C177.032 674.98 177.156 674.995 178.726 675.122C178.724 675.121 178.723 675.121 178.721 675.12C179.359 675.154 184.483 675.701 183.883 675.945C181.367 675.761 178.582 675.602 175.976 675.508C175.904 675.323 175.894 675.143 175.802 674.956ZM205.741 678.456C205.744 678.458 205.748 678.459 205.751 678.46C206.657 678.679 207.5 678.937 208.426 679.149C204.99 678.881 204.565 678.013 201.427 677.693C198.326 677.4 196.341 677.552 193.804 676.152C194.808 676.117 195.925 676.036 196.97 675.997C201.35 677.073 202.558 676.888 206.206 677.155C206.049 677.59 205.896 678.022 205.741 678.456ZM175.195 407.238C174.414 407.854 173.419 407.431 173.322 407.434C173.324 407.433 173.325 407.432 173.327 407.431C165.855 408.561 174.306 407.109 167.169 407.543C168.228 407.345 169.262 407.133 170.295 406.917C171.93 407.042 173.613 407.174 175.195 407.238ZM0.552727 547.164C0.398497 547.235 0.243895 547.321 0.0897956 547.393C0.179721 542.913 -0.35253 541.725 0.455926 538.03C0.38543 541.085 0.417497 544.131 0.554558 547.164C0.553948 547.164 0.553337 547.164 0.552727 547.164ZM153.579 673.392C158.427 673.304 162.076 673.256 166.925 673.741C166.929 673.742 166.933 673.742 166.936 673.743C167.216 673.773 165.861 674.089 166.226 674.172C166.779 674.148 167.343 674.115 167.91 674.079C168.351 674.051 168.79 674.023 169.225 674C169.355 674.258 169.478 674.516 169.607 674.773C169.044 674.754 168.478 674.737 167.91 674.722C165.635 674.664 163.385 674.584 161.157 674.481C161.569 674.64 161.993 674.797 162.408 674.954C160.006 674.993 157.64 675.007 155.293 674.995C156.125 674.604 156.954 674.21 157.776 673.811C156.366 673.68 154.965 673.543 153.579 673.392ZM21.722 477.119C21.1894 477.711 21.6628 476.32 20.9359 477.298C20.2067 478.279 19.4119 480.39 19.2476 479.704C19.9729 478.239 20.7566 476.707 21.5443 475.239C18.0604 479.436 16.3633 484.624 15.387 484.224C17.943 479.711 19.9079 475.938 22.3012 471.514C22.8812 472.134 20.9529 476.766 23.2306 474.489C22.7233 475.351 22.2047 476.264 21.7259 477.109C21.7246 477.112 21.7233 477.116 21.722 477.119ZM318.438 769.853C319.057 772.978 320.472 780.174 320.255 784.242C320.229 785.253 318.858 788.599 318.643 788.587C317.954 788.512 317.649 784.607 317.417 788.827C317.351 787.412 317.241 786.052 317.118 784.652C316.675 784.94 316.232 785.223 315.788 785.494C315.981 787.171 316.137 788.854 316.257 790.545C316.106 790.633 315.954 790.72 315.803 790.807C315.559 784.751 315.116 788.353 314.37 785.28C314.307 788.15 314.138 791.047 313.858 793.869C313.895 792.24 313.873 790.31 313.847 788.863C313.063 788.708 313.361 792.123 313.207 792.71C312.606 796.006 312.18 779.25 310.534 778.101C310.784 780.748 310.955 783.513 311.016 786.218C310.821 785.456 310.618 784.686 310.408 783.929C310.649 777.78 309.777 770.888 308.336 763.814C308.132 763.195 307.921 762.576 307.71 761.968C307.423 762.251 307.133 762.523 306.844 762.802C306.534 761.876 306.209 760.947 305.877 760.035C307.824 762.432 306.744 758.621 305.708 753.812C307.009 756.084 307.756 759.233 308.415 758.786C305.187 750.458 301.506 740.525 296.338 733.467C295.053 731.736 294.274 732.219 291.509 728.049C291.695 728.126 291.873 728.037 292.053 728.046C286.605 721.221 282.999 717.403 276.89 710.734C277.017 711.349 277.135 711.962 277.256 712.581C278.741 713.799 280.19 715.041 281.603 716.318C282.032 717.685 280.629 716.398 284.318 720.672C287.279 724.248 285.717 721.957 286.651 722.829C287.909 724.029 288.44 725.49 289.746 726.831C290.74 727.873 290.263 726.32 292.285 729.455C290.924 728.571 289.516 727.707 288.117 726.884C287.691 726.072 287.275 725.287 286.835 724.488C287.526 725.104 288.191 725.707 288.875 726.349C286.725 723.953 284.588 721.75 282.189 719.485C283.587 719.703 281.059 717.327 279.701 716.065C277.584 714.091 279.751 715.447 278.351 714.153C276.926 712.859 275.008 711.924 272.562 709.515C274.202 710.454 272.58 708.5 273.188 708.548C273.807 708.591 276.571 711.029 274.238 708.334C268.936 704.068 273.525 709.967 269.951 707.179C265.614 703.913 265.918 701.366 267.535 701.957C268.809 702.423 272.248 705.359 273.466 705.936C267.778 700.158 266.724 701.36 265.502 700.728C260.891 698.598 265.175 698.361 259.726 695.826C260.091 695.475 260.411 695.154 260.766 694.822C259.854 694.328 259.204 694.048 258.113 693.444C260.703 696.243 258.169 694.554 256.889 693.767C254.846 692.511 257.75 694.854 257.143 694.624C255.536 693.99 253.276 692.49 254.487 693.701C253.951 693.15 253.352 692.57 252.779 692.015C250.21 690.79 243.488 689.632 249.152 692.153C248.284 692.549 246.707 691.289 245.348 690.478C243.991 689.668 243.822 690.13 242.631 689.457C237.846 686.831 241.416 687.568 242.495 687.349C235.627 684.779 242.123 687.799 232.295 684.168C231.167 684.302 235.463 686.57 231.605 685.412C231.258 684.305 228.753 682.579 223.32 680.564C222.724 680.603 222.129 680.647 221.533 680.691C218.761 679.008 220.475 678.512 214.597 678.096C218.097 676.989 215.783 677.605 210.751 675.659C209.736 675.271 212.263 675.417 210.826 674.888C210.189 674.652 208.529 674.606 206.94 674.055C206.18 673.779 202.51 672.331 199.88 672.295C201.626 673.523 196.617 673.552 200.675 674.98C192.935 673.571 187.418 673.506 196.32 673.292C194.328 672.731 192.437 672.216 190.458 671.721C189.042 671.797 187.606 671.885 186.164 671.988C186 671.209 186.279 670.955 180.759 670.746C183.187 670.703 185.483 670.687 187.969 670.732C188.065 670.583 188.418 670.453 188.351 670.294C185.355 670.262 177.013 669.913 175.035 670.098C173.034 670.243 176.883 670.421 176.299 670.605C171.481 672.102 171.89 670.91 168.394 671.168C168.117 671.19 167.966 671.213 167.91 671.236C167.874 671.25 167.877 671.264 167.91 671.279C168.212 671.405 170.989 671.55 170.136 671.599C169.319 671.644 168.587 671.648 167.91 671.624C165.17 671.528 163.368 670.95 160.491 670.88C161.759 671.406 163.033 671.933 164.299 672.449C160.448 672.384 156.253 672.256 152.815 672.254C151.465 672.253 152.465 672.671 152.244 672.686C151.137 672.769 146.736 672.708 146.284 672.671C142.714 672.42 142.533 671.89 139.014 671.542C140.406 671.63 141.726 671.704 143.108 671.772C143.801 670.993 144.503 670.212 145.19 669.426C141.677 669.11 138.239 668.735 134.869 668.301C137.306 668.851 139.8 669.37 142.332 669.858C138.283 670.198 134.303 670.459 130.388 670.64C128.442 669.977 126.556 669.297 124.666 668.594C119.01 667.817 119.87 669.626 117.5 667.719C115.857 667.544 114.229 667.355 112.619 667.149C112.888 666.99 113.154 666.83 113.422 666.671C111.484 666.41 109.572 666.128 107.681 665.826C109.471 667 111.265 668.185 113.14 669.297C109.306 668.678 109.396 668.025 108.87 667.753C107.497 667.027 104.469 666.884 103.286 666.183C102.904 665.958 106.822 666.487 105.623 665.704C105.364 665.556 100.729 662.595 97.5497 662.08C97.5199 662.403 97.6527 662.847 97.6851 663.216C93.4204 662.193 91.9061 659.916 92.5778 659.651C90.3726 659.297 87.1479 658.197 86.5028 658.501C85.3605 658.104 84.2397 657.7 83.1227 657.286C84.7074 656.575 80.0552 655.001 79.3671 655.851C81.2186 656.641 83.1108 657.409 85.0406 658.15C83.1801 658.792 88.5436 661.892 77.0666 655.933C75.0938 654.363 81.0268 657.691 79.3909 656.454C76.2895 654.86 73.3789 653.831 70.4755 651.893C67.0477 649.488 71.7095 651.381 63.0393 647.53C80.8835 658.83 59.7231 648.016 51.1582 642.25C50.0591 639.17 43.4668 633.949 35.1244 626.148C35.5887 627.392 38.3777 629.768 39.7745 631.255C41.196 632.77 39.3123 631.498 41.0962 633.406C42.8379 635.304 47.1683 639.183 49.0137 640.94C47.082 640.049 37.7975 633.236 44.1225 637.379C40.1115 633.402 38.6998 631.503 33.9287 626.487C31.9648 625.549 31.559 626.062 27.2866 621.017C30.6234 623.295 26.4938 617.029 28.4502 617.577C31.1432 621.331 28.6363 620.041 29.9637 622.443C30.0865 622.698 33.2153 625.748 33.9287 626.487C31.618 622.572 31.0168 621.213 33.6563 622.383C31.5415 620.197 30.4958 618.649 29.8724 618.804C29.6719 618.166 29.4566 617.501 29.2622 616.852C28.6375 616.072 28.0717 615.376 27.445 614.53C27.6252 616.212 26.3441 613.647 24.8891 612.236C23.4443 610.808 24.3304 613.448 21.3205 608.841C22.129 610.495 22.9225 611.994 23.8006 613.574C21.5507 610.772 19.4309 607.847 17.4443 604.78C18.196 607.284 20.545 612.39 19.899 612.637C19.1648 611.14 15.7424 606.354 15.4446 605.787C14.1796 603.658 15.2237 604.625 15.1407 604.456C13.4707 600.962 12.0157 598.163 12.0153 596.537C10.5556 594.012 9.88392 591.919 8.81415 589.056C8.23461 587.477 7.88565 587.945 7.65102 586.981C6.28928 580.484 8.41374 586.439 4.2065 574.433C4.20111 576.006 4.21528 577.568 4.2725 579.155C3.78327 577.788 3.32039 576.418 2.88124 575.031C2.73202 574.069 2.59696 573.115 2.47154 572.151C3.20216 572.03 3.935 571.911 4.66547 571.788C4.50393 570.757 4.35442 569.72 4.22059 568.685C4.59044 570.436 5.00044 572.181 5.4495 573.911C5.61133 574.043 5.77115 574.163 5.9334 574.294C5.56056 571.669 5.28302 569.048 5.09202 566.417C4.82981 566.406 4.56589 566.395 4.30363 566.383C3.84878 560.416 4.07036 560.297 3.00046 554.681C2.7834 550.32 1.74677 546.76 1.36999 544.186C1.54205 543.274 1.72541 542.364 1.91686 541.448C1.73287 540.852 1.55422 540.248 1.37838 539.646C1.75081 538.502 2.14004 537.343 2.53959 536.221C1.93738 535.524 1.7032 535.14 1.14314 539.681C0.34772 538.051 1.52187 530.069 2.38218 526.894C2.99247 524.48 3.24135 527.308 3.37733 527.013C3.8098 526.038 4.28881 522.013 4.5201 521.192C5.43796 517.712 5.99691 515.253 6.99265 512.154C7.1857 511.55 8.09403 509.981 8.15108 509.843C8.54017 508.747 9.60086 506.078 9.71263 505.773C15.6797 490.055 7.50101 506.223 13.5533 491.693C13.1315 492.025 12.7273 492.325 12.3116 492.653C12.7651 491.545 13.2379 490.431 13.7183 489.333C14.5452 488.042 14.1187 489.866 15.1134 487.01C15.3127 487.321 15.5129 487.631 15.7079 487.95C16.1079 486.702 16.5045 485.5 16.9521 484.231C18.816 482.815 22.7287 476.317 23.5897 477.448C23.8518 477.82 21.6666 482.669 23.4309 480.447C24.6219 478.514 23.4171 479.597 23.8513 478.776C27.0713 472.887 27.5657 473.657 28.872 471.251C28.8476 470.72 28.8336 470.166 28.8187 469.623C29.4722 468.812 30.1356 468.006 30.8111 467.203C30.7782 466.885 30.752 466.558 30.7213 466.239C30.143 467.03 29.5026 467.929 28.9862 468.666C28.9168 467.112 35.6259 457.637 33.5039 461.579C32.6273 463.169 30.614 465.748 32.6047 464.645C34.3066 462.089 36.3489 459.259 38.3356 456.699C38.5584 456.755 38.7768 456.817 38.9992 456.874C41.7341 453.494 38.527 455.943 38.1933 455.659C38.8354 454.887 39.4939 454.116 40.1524 453.358C40.5849 453.173 41.0104 453.013 41.4522 452.815C41.2467 452.576 41.0598 451.641 43.3244 449.653C44.7887 448.394 43.259 451.115 45.7319 448.427C45.1948 448.275 43.8001 448.778 46.6089 445.781C47.2625 445.868 47.9954 445.821 48.5975 446C51.9379 442.171 54.1765 441.235 58.4493 437.103C61.1518 434.492 64.7237 430.417 67.8688 430.787C70.2028 429.349 69.21 429.404 69.8401 428.874C72.8427 426.387 75.8521 425.85 76.5 425.561C80.6862 423.732 82.3801 422.575 85.9572 421.48C85.6246 421.221 85.3827 420.944 85.0885 420.678C82.1901 422.589 80.6369 423.266 76.3594 425.414C77.7415 424.582 79.1221 423.783 80.5288 423.008C80.1607 422.853 79.7935 422.699 79.4326 422.545C66.9382 430.691 68.8966 427.293 79.9062 421.086C81.1268 421.109 82.3766 421.133 83.5765 421.2C89.8537 417.497 93.2748 416.948 101.165 414.832C102.103 414.577 105.399 413.397 106.885 413.06C106.86 413.063 106.835 413.067 106.81 413.07C107.615 412.35 106.314 412.394 106.057 411.972C106.851 411.728 107.651 411.492 108.454 411.263C110.352 411.247 109.751 411.633 113.35 410.918C112.802 410.648 112.258 410.38 111.704 410.117C115.738 409.394 118.279 409.453 122.003 408.921C121.389 409.115 120.787 409.312 120.18 409.514C128.3 409.12 122 411.73 128.048 410.312C128.451 410.477 128.815 410.648 129.202 410.817C126.74 410.949 124.199 411.161 121.752 411.446C121.727 411.709 121.698 411.971 121.684 412.233C124.286 411.897 127.013 411.639 129.61 411.479C127.742 411.712 125.735 411.999 123.84 412.327C126.923 412.203 129.965 412.201 132.972 412.31C129.749 411.39 133.919 411.231 133.134 410.296C136.25 410.739 138.973 411.352 142.342 411.833C144.919 412.199 147.854 412.391 151.507 412.196C153.194 412.092 152.301 411.456 157.025 412.261C155.897 411.232 161.728 410.657 160.943 409.662C159.344 409.752 157.671 409.803 156.095 409.861C157.884 410.201 158.206 411.158 155.455 411.441C151.943 411.809 146.724 410.919 146.885 411.977C145.446 411.859 144.101 411.751 142.689 411.612C143.289 411.391 143.874 411.164 144.457 410.936C143.726 410.967 143.043 410.979 142.403 410.973C139.555 410.951 137.641 410.708 136.103 410.134C138.203 410.108 140.32 410.135 142.456 410.218C145.093 410.319 147.699 410.367 150.276 410.363C149.591 410.297 148.895 410.227 148.206 410.155C151.756 409.596 148.182 408.893 154.663 408.855C154.622 409.163 154.587 409.472 154.545 409.782C156.924 409.009 163.244 408.847 161.187 407.948C163.188 408.181 163.602 408.343 164.697 407.781C169.926 408.251 173.282 408.798 171.55 410.058C173.456 409.719 175.338 409.35 177.187 408.954C176.065 408.787 174.943 408.611 173.821 408.423C177.089 408.117 180.413 407.71 183.759 407.193C184.235 408.04 177.328 408.39 179.4 408.895C179.82 409.002 181.594 408.412 182.08 408.427C187.241 408.613 179.256 409.121 180.836 409.623C188.353 408.676 182.681 410.988 192.603 407.978C192.921 408.171 193.26 408.363 193.56 408.556C197.02 407.794 196.651 407.285 199.644 406.409C201.514 405.853 204.152 406.159 205.998 404.874C206.307 404.627 202.596 404.557 209.695 402.317C215.181 400.463 213.228 402.056 216.318 401.234C219.471 400.404 225.542 396.418 228.057 396.684C226.446 397.258 224.528 398.032 222.775 398.633C222.197 399.177 221.628 399.707 221.045 400.24C224.808 398.296 228.919 396.781 231.201 394.898C236.734 393.203 241.653 389.135 239.628 389.073C238.131 390.14 240.097 389.547 237.735 390.565C237.381 390.474 237.015 390.389 236.662 390.295C240.422 388.192 243 386.514 241.709 388.245C242.3 387.903 242.884 387.561 243.47 387.211C243.27 386.669 243.057 386.132 242.856 385.591C243.501 385.105 244.143 384.613 244.778 384.118C245.591 383.731 246.403 383.337 247.218 382.932C246.71 384.338 245.038 385.601 250.957 382.049C250.793 381.786 250.638 381.519 250.474 381.256C255.305 378.189 255.971 378.682 261.52 374.007C257.95 378.448 254.283 378.771 255.62 380.473C254.404 381.224 253.185 381.952 251.968 382.658C251.978 383.035 251.988 383.413 252.004 383.786C258.214 379.28 266.265 369.522 270.739 366.882C271.059 366.335 271.392 365.8 271.703 365.235C275.765 362.277 275.856 359.468 279.943 356.393C280.35 356.059 281.02 358.077 285.144 352.93C284.866 352.917 284.517 352.745 284.213 352.67C285.212 351.653 286.197 350.637 287.171 349.602C287.163 349.272 287.161 348.932 287.149 348.601C285.615 350.482 284.059 352.307 282.454 354.117C283.68 352.527 284.884 350.908 286.05 349.282C284.183 351.135 283.436 352.036 283.99 350.473C285.361 348.691 286.713 346.861 288.021 345.019C288.046 344.749 288.069 344.479 288.092 344.209C287.114 344.848 286.132 345.49 285.141 346.101C288.936 341.635 291.764 337.46 294.859 334.075C295.378 333.493 294.424 336.102 296.747 331.375C297.034 331.454 297.306 331.453 297.581 331.512C300.165 325.564 301.371 323.879 304.921 318.134C302.483 321.773 304.551 318.47 304.773 317.349C304.93 316.584 303.645 319.24 303.604 318.846C303.577 318.452 304.506 314.663 302.974 317.538C300.844 325.467 298.071 326.412 293.309 335.534C293.981 334.081 294.637 332.613 295.266 331.15C294.752 331.706 294.288 332.201 293.728 332.796C296.999 328.113 295.358 330.357 296.326 328.214C297.289 326.062 299.143 322.261 300.386 319.685C300.776 318.877 300.691 319.899 301.642 318.108C302.299 316.887 303.417 313.254 304.386 312.75C305.024 312.407 303.563 318.461 307.086 310.802C308.13 309.53 306.347 313.164 306.348 313.261C306.508 314.155 309.034 309.568 309.597 307.169C309.642 306.976 308.533 308.575 309.194 306.606C310.735 301.931 312.125 299.473 313.781 296.682C313.211 296.106 313.792 291.934 315.507 287.13C315.383 286.82 315.253 286.523 315.125 286.214C315.007 287.002 314.883 287.79 314.754 288.58C314.375 289.367 314.009 290.211 313.603 290.967C314.99 286.022 314.185 285.046 314.493 282.615C315.427 274.202 316.701 279.752 316.753 281.361C316.29 282.379 315.809 283.349 315.329 284.328C315.605 284.282 315.883 284.235 316.158 284.198C319.399 271.952 318.289 282.764 320.31 276.599C319.482 274.672 320.427 270.137 322.211 264.259C322.316 263.596 322.422 262.933 322.517 262.27C322.355 262.132 322.081 262.091 321.99 261.894C322.842 254.738 324.772 253.604 325.048 252.93C326.169 249.915 325.222 247.424 325.272 246.528C325.47 242.738 326.009 241.637 325.874 237.956C325.687 234.02 325.279 236.707 324.947 235.514C324.686 234.559 324.6 231.499 324.274 230.257C324.518 230.748 324.757 231.298 324.997 231.793C325.218 227.83 325.344 224.347 324.979 219.786C322.825 214.899 324.839 210.026 322.869 212.17C323.375 216.559 323.333 218.923 322.968 221.28C322.64 218.47 322.242 215.726 321.741 212.89C321.866 212.031 322.017 211.41 322.107 210.399C321.246 208.361 320.518 203.643 319.875 201.732C316.852 193.107 316.853 196.297 315.542 187.944C317.721 193.536 318.388 193.216 319.877 198.97C320.073 197.591 319.125 194.723 320.277 196.424C318.495 190.955 318.464 192.958 317.289 190.981C316.267 189.269 314.846 185.695 314.394 186.114C314.537 185.636 314.701 185.242 314.839 184.761C313.445 181.39 311.829 177.997 310.04 174.771C311.085 175.99 312.107 177.25 313.103 178.551C312.68 177.407 312.235 176.271 311.771 175.148C306.983 167.345 297.617 154.304 297.415 158C294.321 154.928 294.097 154.389 292.625 152.443C292.3 152.416 292.002 152.373 291.664 152.368C289.631 150.396 287.464 149.679 285.526 148.13C283.559 146.584 283.394 145.723 282.489 146.507C281.308 145.402 280.054 144.38 278.765 143.366C277.782 143.149 276.798 142.95 275.819 142.777C274.484 142.001 273.197 141.299 271.857 140.623C270.958 140.8 265.419 138.621 262.754 138.388C260.557 137.265 261.096 135.334 255.11 134.677C255.195 135.156 255.275 135.634 255.354 136.113C254.03 135.807 252.679 135.529 251.296 135.281C251.235 135.123 251.184 134.967 251.122 134.809C251.794 134.927 252.509 135.058 253.198 135.197C252.623 134.865 252.051 134.541 251.469 134.221C249.434 134.377 247.396 134.599 245.327 134.884C248.123 135.298 250.585 135.795 253.444 136.467C249.818 136.332 247.733 135.847 244.674 136.093C242.081 135.375 243.035 135.041 244.142 134.38C243.153 134.407 242.145 134.447 241.141 134.504C241.793 133.841 240.151 133.31 245.956 133.582C245.57 133.366 245.171 133.16 244.788 132.941C243.83 132.936 243.208 132.753 242.14 132.816C239.206 132.989 237.002 134.308 237.254 134.72C237.296 134.932 240.184 134.446 240.064 134.77C239.77 135.552 233.316 135.253 242.632 135.976C239.615 136.433 238.747 136.078 235.604 136.078C235.869 136.321 236.124 136.563 236.375 136.809C234.895 136.756 233.387 136.736 231.858 136.748C233.936 135.215 222.355 135.854 232.624 133.717C229.577 133.891 226.463 134.19 223.269 134.618C223.905 134.383 224.539 134.156 225.173 133.932C226.612 133.805 228.025 133.706 229.429 133.631C227.761 133.555 226.058 133.519 224.328 133.519C223.877 133.619 223.457 133.719 223.063 133.819C220.116 134.579 218.828 135.197 217.349 135.93C221.581 135.715 220.508 135.383 223.216 134.811C223.408 134.771 223.618 134.729 223.85 134.687C223.778 135.07 223.994 135.379 223.738 135.808C223.625 135.781 223.499 135.761 223.361 135.746C221.118 135.511 215.913 136.765 214.661 136.968C210.6 137.636 213.69 136.463 210.979 136.809C208.242 137.154 205.293 137.965 202.82 137.503C202.909 137.912 203.142 138.318 203.351 138.675C198.998 139.311 199.832 138.712 199.372 138.701C192.123 138.412 188.68 139.629 180.384 140.302C181.423 140.363 182.479 140.407 183.542 140.451C177.447 141.749 181.518 141.236 186.998 141.093C181.878 141.412 179.089 142.332 175.623 142.744C172.302 143.158 165.944 142.988 163.784 142.719C168.88 142.129 174.344 142.219 179.881 141.732C179.217 141.35 178.579 141.03 177.901 140.603C174.575 141.688 172.654 141.172 171.54 141.103C168.14 140.894 168.281 141.645 166.242 140.885C166.331 141.165 166.398 141.401 166.487 141.662C159.675 141.751 152.371 141.199 147.894 142.102C147.512 141.412 147.23 140.75 146.796 140.043C143.963 140.46 141.575 139.823 139.08 139.792C136.642 139.757 137.522 140.369 134.683 140.37C134.159 140.368 133.107 139.941 131.825 140.081C130.606 140.242 125.476 141.604 125.094 139.883C122.648 139.587 120.389 139.222 118.096 138.849C120.348 139.094 122.645 139.312 124.975 139.494C123.037 138.861 121.156 138.21 119.308 137.536C119.013 137.854 118.717 138.178 118.431 138.491C113.068 138.117 109.354 136.839 104.124 135.806C103.231 135.62 105.158 136.81 101.267 135.695C97.4225 134.541 94.9627 132.584 88.3854 130.929C88.0341 130.837 85.9338 131.196 83.8076 129.647C83.3365 129.303 85.6369 129.911 84.4992 129.265C83.3234 128.641 78.2106 126.353 78.0521 125.712C78.035 125.896 78.2763 126.199 78.3587 126.429C77.4615 126.132 76.5708 125.827 75.6226 125.481C75.6684 125.162 75.7087 124.84 75.7555 124.523C70.4856 122.798 67.2692 122.577 60.6092 117.858C62.2693 119.483 63.9917 121.063 65.8217 122.62C66.5411 122.666 67.2634 122.705 67.9755 122.735C71.1422 124.611 74.6814 126.462 78.0524 128.044C78.7611 127.958 79.4594 127.864 80.1681 127.769C81.0727 128.193 81.9819 128.605 82.9134 129.015C82.5828 129.165 82.2502 129.312 81.909 129.456C83.8123 130.137 85.7594 130.781 87.5994 131.347C83.3076 131.554 77.0706 127.124 77.1215 128.51C76.392 127.975 75.6575 127.427 74.898 126.856C74.2778 127.249 72.6227 126.312 69.821 124.757C70.331 125.366 70.925 126.004 71.4037 126.584C68.7871 124.845 63.7909 122.111 61.1771 120.222C60.024 119.402 61.4557 119.78 61.1301 119.51C59.4583 118.146 55.5394 116.346 54.9017 115.774C50.9172 112.321 49.3845 109.106 44.6172 105.826C48.6853 110.072 46.4795 107.798 47.6276 109.602C47.9758 110.16 53.4862 115.424 46.4476 109.029C45.2852 108.446 34.7124 94.8562 39.0377 98.6041C37.1045 96.6779 35.5225 95.0933 33.833 93.1917C32.0352 86.9398 31.6409 89.7422 31.7637 91.8804C31.1773 91.0258 30.6261 90.2085 30.0556 89.3127C32.1344 90.618 26.2988 80.903 24.2841 77.568C23.5519 76.4707 24.798 79.925 23.3441 77.2674C22.8032 75.9298 22.2339 74.4013 21.7293 72.976C21.9294 75.2816 19.9949 71.4038 19.354 71.7136C18.9079 68.8641 19.5105 66.4292 20.7206 67.5836C19.6564 65.5804 18.6321 63.5048 17.6663 61.4282C17.8165 62.4866 17.9859 63.5595 18.1638 64.6215C16.1395 57.4648 13.0646 48.2929 14.2834 46.4713C14.0777 45.5179 13.8773 44.5399 13.6862 43.5736C13.3771 43.3214 13.0699 43.0781 12.7619 42.8235C12.1883 38.4017 11.7818 33.9702 11.5033 29.5178C12.1276 33.4654 12.6014 34.2883 12.938 38.4629C12.9804 36.8276 13.043 35.1745 13.132 33.5933C11.5773 27.5273 10.8996 26.7009 10.4652 17.3123C10.4272 16.8658 10.7266 9.77198 10.7979 9.51047C11.0496 8.38765 11.5522 10.055 11.6821 9.55424C12.0251 8.18311 12.8486 -0.197028 13.0257 0.00351333C14.8337 2.05705 16.2574 29.6824 17.9243 36.919C24.5547 121.171 119.206 145.404 193.159 134.835C193.944 134.755 193.574 134.5 193.908 134.455C195.981 134.18 198.106 134.408 198.895 134.341C200.579 134.196 199.607 133.883 200.839 133.745C208.379 132.896 215.147 132.067 222.625 130.974C228.109 130.172 233.292 129.719 238.647 129.573C239.547 129.552 238.638 129.896 240.208 129.821C241.016 129.778 243.542 129.283 245.328 129.358C251.4 129.603 256.922 130.453 263.238 131.958C266.721 132.762 272.109 134.537 275.763 136.123C277.383 136.806 279.268 137.426 280.866 138.237C283.14 139.408 282.436 139.598 282.768 139.806C284.192 140.75 284.656 140.419 286.036 141.271C288.556 142.891 288.555 143.273 291.657 145.511C293.898 147.089 298.81 150.989 301.232 153.471C306.645 159.527 312.484 167.783 315.959 174.331C318.044 178.239 317.719 178.857 318.446 180.45C320.94 186.131 323.107 190.536 324.697 196.148C326.807 203.781 327.592 210.541 328.39 218.007C328.513 219.205 328.929 218.884 329.054 220.067C329.527 224.443 329.863 230.154 329.81 234.03C329.75 238.388 329.059 240.054 328.988 244.278C328.959 245.516 329.511 245.912 329.434 248.007C329.309 251.35 328.415 255.004 328.067 257.299C327.581 260.436 328.539 257.771 327.847 262.019C327.817 262.194 327.313 262.769 327.187 263.685C326.802 266.356 327.187 266.148 326.415 270.051C326.352 270.444 324.9 275.439 324.765 275.945C324.113 278.912 322.395 284.891 321.965 286.611C320.421 292.869 322.488 288.21 319.553 293.037C319.123 295.434 318.649 297.843 318.072 300.355C318.392 298.655 315.558 304.992 315.374 305.444C314.061 309.27 315.488 307.252 313.372 311.948C314.962 305.248 310.607 317.942 309.188 320.591C302.867 333.538 295.526 344.49 286.398 355.734C283.352 359.495 279.186 364.544 275.564 368.179C274.72 369.03 275.154 368.185 274.405 368.926C273.656 369.665 274.713 369.072 273.845 369.905C268.389 375.089 263.62 378.405 258.648 383.226C258.316 383.344 258.271 383.269 257.757 383.51C253.777 387.527 244.13 392.735 240.563 394.551C234.989 397.501 233.73 398.619 229.506 400.573C224.022 403.133 215.115 405.535 219.478 405.44C215.559 407.033 211.752 408.378 207.703 409.48C207.249 409.603 207.448 409.147 207.266 409.194C206.116 409.488 205.839 409.92 205.068 410.16C202.975 410.802 206.3 409.436 203.328 410.394C201.76 410.88 200.909 411.459 196.451 412.517C179.234 416.546 160.647 417.815 142.019 416.446C132.385 415.745 122.939 416.207 113.825 417.771C112.055 418.085 113.28 418.225 111.077 418.628C103.46 419.847 90.018 423.837 84.0298 427.009C78.0509 430.057 79.6615 429.893 76.1198 432.131C75.4425 432.575 75.8624 431.978 75.2275 432.345C70.964 434.797 65.8334 437.758 62.6035 440.163C60.4697 441.751 60.9414 442.002 59.5361 443.185C57.4481 444.955 55.0174 446.47 53.9235 447.455C48.8028 452.096 45.8287 455.83 41.5267 460.632C41.7693 460.506 41.9511 460.441 42.1677 460.344C37.2475 466.166 32.8108 472.401 28.8972 478.956C29.1638 478.696 29.4256 478.447 29.6951 478.191C25.124 485.873 24.8617 484.589 27.1342 484.914C26.8968 485.519 26.657 486.166 26.4365 486.745C25.5631 485.994 22.2408 490.378 19.3071 496.681C19.0784 497.145 18.8552 500.705 17.7776 499.889C17.7549 500.834 17.775 501.405 17.7783 502.204C16.8996 503.437 16.0362 504.71 15.1951 505.98C14.9985 506.752 14.8034 507.535 14.6205 508.309C14.8295 508.498 15.11 508.492 15.2739 508.809C14.165 512.286 12.0093 519.51 11.5115 522.361C10.1301 529.443 10.02 536.731 9.02326 542.264C8.99223 544.979 9.56939 542.31 9.41168 546.325C9.15046 546.775 8.90238 547.2 8.63822 547.675C9.78957 550.962 9.08087 551.648 9.11253 556.175C9.16456 559.235 9.64626 561.192 9.9765 564.076C10.0632 564.806 9.71898 564.75 9.80213 565.247C10.0535 566.925 11.3838 571.566 11.6735 572.711C14.1125 583.152 17.3556 591.877 22.1043 600.857C22.6237 601.822 22.2232 600.421 22.7615 601.417C23.6403 603.014 22.6711 602.332 23.1811 603.265C24.6475 605.853 25.092 605.616 27.375 608.983C34.9605 620.16 46.1395 631.459 58.0834 639.19C58.4606 639.436 58.6082 639.159 59.0212 639.422C61.7517 641.161 64.2492 643.116 66.7489 644.479C70.8589 646.713 74.6327 648.049 78.7417 649.84C87.1883 653.477 94.93 656.318 104.359 658.77C112.013 660.717 118.564 661.987 127.296 663.265C140.404 665.146 153.832 665.877 167.91 665.744C193.644 665.475 220.197 669.478 243.91 680.673C244.845 681.116 244.346 681.192 244.637 681.313C247.391 682.47 247.772 682.266 248.38 683.436C251.875 685.04 253.158 685.041 257.173 687.421C259.275 688.707 257.247 688.51 260.997 690.307C264.357 692.057 261.324 689.12 270.096 696.134C270.33 696.332 271.127 697.619 273.044 698.982C274.936 700.363 273.146 698.289 277.488 701.867C287.744 710.364 298.293 723.795 305.497 737.459C306.035 738.274 310.278 746.593 311.009 748.298C312.569 751.537 312.713 750.667 314.34 755.061C315.554 758.464 315.957 761.457 317.046 765.541C317.166 766.019 317.857 766.714 318.438 769.853ZM242.29 385.369C242.731 384.518 243.061 382.321 247.363 379.97C247.776 379.742 246.394 382.166 248.731 380.756C246.629 382.399 244.485 383.885 242.291 385.37C242.29 385.37 242.29 385.369 242.29 385.369ZM309.8 792.943C309.856 789.314 309.727 785.66 309.42 782.029C309.9 784.503 310.296 787.007 310.607 789.513C310.356 790.671 310.086 791.808 309.8 792.943ZM3.24078 523.318C3.24011 523.322 3.23945 523.325 3.23878 523.329C3.75173 519.341 4.43783 515.353 5.29231 511.388C5.33868 511.841 5.38736 512.296 5.43796 512.748C4.87349 515.895 4.41518 519.048 4.06725 522.188C3.79029 522.562 3.51467 522.94 3.24078 523.318ZM2.84396 554.912C2.7965 557.46 2.43657 556.862 2.2212 558.288C2.22181 558.288 2.22241 558.288 2.22302 558.288C2.1664 558.665 2.24753 560.395 2.30711 561.061C2.48718 560.794 2.65844 560.458 2.83702 560.174C3.85969 565.975 4.10836 577.918 1.12525 562.909C1.41086 563.106 1.69438 563.292 1.98087 563.486C0.955995 555.972 1.48406 547.573 2.84396 554.912ZM284.466 345.091C287.483 339.567 288.455 337.912 292.982 331.848C292.625 332.881 292.258 333.913 291.88 334.943C290.995 335.857 290.112 336.75 289.212 337.64C289.21 337.643 289.208 337.646 289.206 337.649C289.282 338 289.356 338.352 289.436 338.696C287.831 340.861 286.17 343 284.466 345.091ZM185.205 673.706C186.785 675.558 186.382 674.482 181.43 674.539C179.707 674.569 181.361 674.966 180.291 674.953C174.453 674.923 174.127 673.835 175.402 673.266C178.643 673.333 182.044 673.489 185.194 673.705C185.198 673.705 185.201 673.706 185.205 673.706ZM303.943 751.729C303.944 751.733 303.945 751.736 303.947 751.739C303.616 752.03 302.647 749.922 303.255 752.495C302.524 750.64 301.757 748.829 300.929 747.01C301.207 747.526 301.485 748.057 301.755 748.577C301.679 748.047 301.599 747.514 301.515 746.982C300.784 746.537 300.773 745.818 300.002 743.874C299.798 744.617 299.584 745.352 299.365 746.084C298.484 743.863 297.511 741.625 296.485 739.455C296.583 739.367 296.681 739.278 296.78 739.19C296.195 738.474 295.606 737.774 295.004 737.073C295.012 736.782 295.022 736.499 295.027 736.207C294.363 735.317 293.695 734.451 293.009 733.587C293.137 733.108 294.599 735.057 292.178 731.497C293.226 732.389 294.257 733.3 295.28 734.241C298.659 739.817 301.559 745.674 303.943 751.729ZM139.306 672.278C146.764 672.852 144.682 672.914 142.854 673.63C141.662 673.186 140.471 672.735 139.306 672.278ZM95.4019 415.24C97.2418 414.024 99.1541 412.85 101.149 411.731C105.288 410.261 109.833 410.437 106.701 411.526C102.989 412.862 98.8633 413.437 95.4019 415.24ZM192.351 405.917C187.261 406.698 191.875 405.061 192.893 404.417C194.388 404.741 196.334 404.25 199.487 403.495C196.546 404.328 193.187 405.789 192.351 405.919C192.351 405.919 192.351 405.918 192.351 405.917ZM28.1989 465.791C26.9906 467.551 25.9521 469.404 24.7622 470.906C24.5986 470.119 27.1297 467.197 24.9395 469.036C25.679 467.88 26.4361 466.732 27.2003 465.604C26.9859 466.508 27.8559 465.695 28.1943 465.794C28.1958 465.793 28.1974 465.792 28.1989 465.791ZM70.6597 655.406C67.0762 652.957 66.2612 652.853 62.3482 651.237C62.089 650.496 66.8728 652.108 69.8412 653.308C70.1024 654.005 70.3733 654.704 70.6597 655.406ZM51.3615 115.328C52.5313 115.46 58.6357 119.811 61.658 121.816C61.2337 121.672 60.8089 121.527 60.3869 121.38C57.3043 119.534 54.236 117.479 51.3615 115.328ZM200.98 403.139C200.455 403.263 199.957 403.382 199.487 403.495C200.005 403.35 200.508 403.226 200.98 403.139ZM324.696 240.35C325.271 242.12 325.682 236.931 325.186 243.226C325.187 243.226 325.187 243.226 325.188 243.226C324.807 247.334 324.689 248.243 324.28 252.079C323.603 250.606 324 242.866 322.844 253.509C322.827 253.65 323.349 253.421 323.086 255.127C323.001 255.669 322.417 257.265 321.941 259.775C321.788 260.587 320.754 266.697 321.97 258.342C321.371 258.514 320.858 257.989 320.306 257.936C320.569 254.73 321.967 252.26 322.225 248.795C322.588 243.637 321.497 241.018 323.019 240.044C323.302 244.434 322.667 251.863 321.648 252.759C321.18 256.974 321.727 258.237 322.501 254.906C323.386 240.27 324.175 251.035 324.129 238.149C323.926 237.993 323.712 237.462 323.516 237.54C324.283 233.631 324.512 239.705 324.696 240.35ZM319.546 270.505C319.619 267.967 319.644 265.388 319.609 262.867C320.304 262.981 320.75 264.437 320.398 268.446C320.116 269.139 319.831 269.831 319.546 270.505ZM211.095 139.003C210.788 139.433 209.881 139.909 209.236 140.361C208.661 140.183 190.092 141.872 199.419 140.553C200.802 140.375 209.086 140.079 211.095 139.003ZM98.0023 664.918C95.972 664.078 93.9962 663.215 92.0667 662.329C95.2076 663.156 98.4313 663.914 101.732 664.605C100.482 664.719 99.2453 664.825 98.0023 664.918ZM130.098 409.854C129.197 409.867 132.174 409.24 128.627 409.441C131.254 408.997 133.76 408.688 136.418 408.427C137.207 408.696 138.001 408.972 138.785 409.256C139.41 409.12 140.052 408.991 140.684 408.864C140.29 409.209 139.94 409.549 139.532 409.903C135.111 408.94 134.074 409.834 130.098 409.854ZM24.5935 476.475C23.4946 476.748 26.3746 471.047 23.0425 476.354C23.1973 475.067 23.9266 473.26 25.8945 470.136C26.3852 469.748 26.8757 469.365 27.3697 468.985C26.9715 468.621 27.3224 467.717 28.1989 465.791C28.2005 465.79 28.202 465.789 28.2036 465.788C31.4295 461.172 31.4384 461.59 32.9403 461.045C28.9757 465.477 29.5587 466.138 27.7082 469.724C26.451 472.195 24.4533 475.185 24.5935 476.475ZM230.566 136.332C226.666 137.408 230.048 137.555 223.688 137.867C223.407 137.885 223.109 137.903 222.79 137.922C223.069 137.775 223.348 137.627 223.628 137.48C223.81 137.384 223.992 137.289 224.173 137.194C226.34 136.843 228.471 136.556 230.566 136.332ZM12.9029 493.646C14.2188 493.661 16.6622 490.477 15.1368 489.028C13.1716 492.388 14.9806 491.113 12.9029 493.646ZM191.02 408.168C183.819 409.499 184.947 407.812 187.761 406.617C188.259 406.783 188.757 406.946 189.247 407.107C190.471 406.753 191.685 406.385 192.888 406.006C192.276 406.729 191.654 407.451 191.02 408.168ZM25.9204 617.639C21.7429 613.648 29.3494 622.801 26.4514 619.996C24.0668 617.757 22.3794 613.815 23.7484 614.779C24.3972 615.655 25.13 616.627 25.9138 617.63C25.916 617.633 25.9182 617.636 25.9204 617.639ZM9.94822 589.283C9.40421 590.476 9.13436 589.149 10.9673 593.246C11.3925 594.468 15.5309 603.762 14.3568 599.59C12.7625 596.359 11.24 592.801 9.94822 589.283ZM264.743 369.098C265.096 369.385 259.902 375.132 258.947 375.562C258.947 375.562 258.948 375.563 258.948 375.563C256.509 376.795 262.68 371.526 259.445 373.144C265.827 368.676 266.209 365.62 267.454 367.737C264.151 370.973 265.413 369.112 264.743 369.098ZM11.1461 29.6182C11.1457 29.6146 11.1453 29.611 11.1449 29.6074C11.1737 30.1338 11.1161 34.4692 10.8485 33.9787C10.3752 28.8293 10.8773 29.676 9.75817 24.9715C9.94195 24.6864 10.1234 24.4406 10.3078 24.1368C10.6081 26.05 10.9531 27.0357 11.1461 29.6182ZM191.453 140.365C193.286 140.094 196.746 140.2 198.914 139.938C192.174 142.383 184.161 141.415 191.453 140.365ZM260.39 698.114C260.385 698.112 260.381 698.109 260.376 698.107C260.378 698.107 260.38 698.107 260.382 698.108C260.385 698.11 260.387 698.112 260.39 698.114ZM314.257 186.627C314.271 186.363 314.31 186.201 314.37 186.124C314.377 186.121 314.385 186.118 314.392 186.115C314.344 186.274 314.298 186.442 314.257 186.627ZM275.889 357.673C278.483 355.679 271.949 364.221 269.223 366.432C269.214 366.076 269.077 365.881 269.269 365.272C271.774 363.811 275.483 358.023 275.889 357.673ZM53.6304 439.299C60.2193 433.884 53.1081 442.639 51.6467 441.64C51.6304 441.599 53.4571 439.44 53.6304 439.299ZM222.791 396.754C221.097 398.226 225.159 396.724 218.728 399.288C218.287 399.276 217.847 399.262 217.406 399.246C219.227 398.447 221.023 397.615 222.791 396.754ZM103.593 416.301C113.613 413.23 123.762 411.791 116.62 410.709C115.826 410.881 115.04 411.058 114.239 411.248C114.264 412.181 111.188 412.123 106.906 413.057C106.375 413.544 104.053 414.194 103.697 414.612C103.01 415.407 105.758 415.137 103.593 416.301ZM209.2 675.049C209.001 675.167 208.805 675.287 208.606 675.404C206.929 675.236 205.232 675.088 203.524 674.964C203.848 674.716 204.173 674.469 204.498 674.222C206.082 674.479 207.64 674.752 209.19 675.046C209.193 675.047 209.197 675.048 209.2 675.049ZM319.077 281.072C317.631 279.695 317.19 283.072 315.987 289.886C317.087 286.973 318.107 284.073 319.077 281.072ZM5.10492 541.264C4.60347 541.458 4.10412 541.651 3.60306 541.859C3.95929 545.539 4.56402 544.854 5.26887 543.152C5.20995 542.52 5.15457 541.899 5.10492 541.264ZM13.6061 592.126C13.1347 590.704 13.0576 591.558 13.0054 591.411C11.8129 587.798 11.7909 587.283 10.0837 582.93C9.81524 582.416 9.54822 581.91 9.28436 581.391C8.92528 583.754 9.88345 585.12 10.9114 589.621C10.9482 588.721 10.9985 587.829 11.0602 586.938C11.8296 589.348 12.6824 591.729 13.6266 594.097C13.8464 594.331 14.0664 594.565 14.2879 594.797C14.0491 593.913 13.8276 592.996 13.6061 592.126ZM227.936 680.631C230.294 681.478 232.572 682.36 234.902 683.328C235.08 683.127 235.256 682.923 235.435 682.722C232.92 681.947 230.46 681.267 227.936 680.631ZM324.274 230.257C324.178 230.064 324.082 229.877 323.984 229.711C324.097 229.724 324.192 229.934 324.274 230.257ZM11.8787 22.9483C11.8099 20.1381 11.4178 16.0762 11.3017 13.0177C10.6601 13.2736 11.3172 21.1131 11.2134 23.9028C11.3673 24.3384 11.9076 24.1444 11.8787 22.9483ZM180.961 409.839C180.296 410.252 179.6 410.664 178.957 411.065C177.285 411.244 175.595 411.399 173.887 411.532C173.862 411.794 173.838 412.06 173.812 412.323C181.262 411.187 179.643 412.07 183.564 412.258C182.683 411.459 181.824 410.652 180.961 409.839ZM292.542 725.053C289.11 720.683 287.558 719.449 288.893 722.341C290.223 723.749 291.537 725.216 292.805 726.701C292.72 726.151 292.63 725.598 292.542 725.053ZM281.952 144.205C277.808 142.229 278.114 141.224 273.743 139.948C275.854 141.039 278.041 142.299 280.041 143.604C280.675 143.793 281.323 143.998 281.952 144.205ZM289.239 349.154C290.725 347.78 291.527 343.845 295.632 339.967C296.042 338.66 296.184 337.772 296.479 336.618C297.175 336.282 297.921 335.866 298.595 335.544C298.597 335.541 298.599 335.537 298.601 335.534C301.116 331.177 298.973 333.695 298.67 333.373C298.553 333.239 300.702 330.206 299.777 331.004C298.23 332.402 294.546 338.903 293.837 338.446C295.51 336.434 297.996 331.955 296.741 332.959C295.388 334.053 293.651 338.629 291.505 340.853C295.052 337.975 289.592 345.217 288.138 345.419C285.566 350.117 288.815 346.451 291.892 341.95C290.614 345.116 293.083 340.865 294.049 340.541C292.536 343.668 285.078 352.952 289.239 349.154ZM64.3649 435.097C67.2514 432.947 72.1887 430.353 74.0007 428.588C75.0525 427.533 70.0368 430.152 73.0973 427.661C70.0832 429.501 69.5525 430.157 70.3299 430.27C69.6853 430.745 69.0367 431.23 68.402 431.715C68.0381 431.831 67.6671 431.956 67.3037 432.076C67.0706 432.486 66.8375 432.896 66.6185 433.301C65.8943 433.741 65.1661 434.194 64.4496 434.648C64.43 434.793 64.3456 434.967 64.3649 435.097ZM152.064 140.923C153.085 140.932 154.104 140.936 155.14 140.934C155.026 140.807 154.891 140.676 154.762 140.545C154.669 140.443 154.576 140.34 154.483 140.237C155.147 140.615 159.83 141.219 161.835 140.789C162.844 140.574 160.523 139.93 164.817 139.719C161.676 139.828 158.904 139.953 155.889 140.004C156.167 139.798 156.448 139.59 156.711 139.384C156.71 139.383 156.708 139.383 156.706 139.383C155.685 139.336 154.631 139.282 153.611 139.225C153.094 139.793 152.583 140.358 152.064 140.923ZM6.26322 538.402C6.13054 534.986 6.07921 533.825 5.25483 535.363C5.25417 535.366 5.25352 535.37 5.25286 535.373C5.41631 536.667 5.59814 537.961 5.79922 539.248C5.95259 538.969 6.10727 538.69 6.26322 538.402ZM322.466 200.284C318.292 193.659 323.617 209.547 323.681 206.305C323.716 206.156 322.403 201.052 322.466 200.284ZM192.488 408.644C190.533 409.08 188.552 409.481 186.543 409.852C187.059 410.072 187.586 410.288 188.104 410.504C189.586 409.903 191.049 409.281 192.488 408.644ZM277.266 706.234C276.145 704.235 272.034 700.409 269.402 699.349C270.46 700.28 271.545 701.263 272.582 702.238C270.442 700.57 268.302 699.023 266.056 697.485C265.383 698.184 268.231 699.504 271.702 702.706C272.258 703.194 274.953 707.08 276.708 707.527C277.086 707.605 273.486 704.201 276.403 706.109C275.312 705.062 274.33 704.215 273.267 703.283C273.335 703.044 273.404 702.804 273.463 702.558C274.753 703.753 276.019 704.978 277.266 706.234ZM82.2302 424.43C86.6865 422.373 87.1314 421.857 87.8192 420.823C85.7143 421.782 83.644 422.799 81.6117 423.871C81.8226 424.055 82.0198 424.245 82.2302 424.43ZM239.024 681.652C236.498 680.479 237.388 681.446 236.311 681.12C232.181 679.9 229.681 678.594 225.587 677.537C225.881 677.519 226.148 677.501 226.434 677.486C226.43 677.485 226.427 677.484 226.423 677.483C207.546 671.616 217.311 675.35 228.58 678.807C228.777 679.089 228.963 679.368 229.157 679.649C234.203 681.006 238.881 682.645 239.024 681.652ZM323.868 265.952C324.029 265.751 324.508 267.79 324.738 264.159C324.028 261.154 323.864 265.865 323.193 266.94C323.255 265.959 323.316 264.959 323.361 263.993C322.057 269.66 322.094 270.556 323.362 268.623C323.452 268.483 323.708 266.153 323.868 265.952ZM327.013 227.814C325.273 227.134 326.256 234.344 326.758 234.101C326.773 233.086 326.466 232.305 326.571 231.233C326.672 230.144 327.079 229.888 327.013 227.814ZM225.544 399.469C225.742 399.392 228.002 399.15 227.564 398.72C224.612 398.641 220.028 401.514 221.063 401.585C222.704 400.874 223.713 400.217 225.544 399.47C225.544 399.47 225.544 399.469 225.544 399.469ZM299.014 731.98C299.033 731.863 296.303 727.077 295.657 726.677C295.075 726.373 294.64 726.325 294.132 726.154C296.124 728.395 299.123 733.701 299.008 731.971C299.01 731.974 299.012 731.977 299.014 731.98Z" fill="#1A3A52"/>
</svg>
